<?xml version="1.0" encoding="utf-8"?>
<!-- Generator: Adobe Illustrator 22.0.1, SVG Export Plug-In . SVG Version: 6.00 Build 0)  -->
<svg version="1.1" id="Capa_1" xmlns="http://www.w3.org/2000/svg" xmlns:xlink="http://www.w3.org/1999/xlink" x="0px" y="0px"
	 viewBox="0 0 231.2 46.5" style="enable-background:new 0 0 231.2 46.5;" xml:space="preserve">
<style type="text/css">
	.st0{fill:#FFFFFF;}
	.st1{display:none;}
	.st2{display:inline;}
	.st3{fill:url(#SVGID_1_);}
	.st4{opacity:0.4;}
	.st5{fill:url(#SVGID_2_);}
	.st6{fill:#BE3176;}
</style>
<g>
	<g>
		<path class="st0" d="M28.9,22.8c0-3.5-2.8-6.3-6.3-6.3c-3.5,0-6.3,2.8-6.3,6.3c0,3.5,2.8,6.3,6.3,6.3
			C26.1,29.1,28.9,26.3,28.9,22.8z"/>
		<path class="st0" d="M61.7,16c-0.6-0.3-1.2-0.5-1.7-0.5c-0.5-0.1-0.9-0.1-1.1-0.1c-0.2,0-0.6,0-1.1,0.1c-0.5,0.1-1.1,0.2-1.7,0.5
			c-0.6,0.3-1.2,0.7-1.8,1.3c-0.6,0.6-1,1.4-1.3,2.4h11.6c-0.3-1-0.7-1.8-1.3-2.4C62.9,16.7,62.3,16.3,61.7,16z"/>
		<path class="st0" d="M59,1c-7.7,0-14.4,4-18.2,10C36.9,5,30.2,1,22.6,1c-2.2,0-4.3,0.3-6.3,0.9v8.2c1.9-1,4-1.5,6.3-1.5
			c7.8,0,14.1,6.3,14.1,14.1c0,7.8-6.3,14.1-14.1,14.1c-7.8,0-14.1-6.3-14.1-14.1V6.3C3.9,10.2,1,16.1,1,22.6
			c0,11.9,9.7,21.6,21.6,21.6c7.7,0,14.4-4,18.2-10c3.8,6,10.5,10,18.2,10c11.9,0,21.6-9.7,21.6-21.6C80.5,10.7,70.9,1,59,1z
			 M73,25.5H53.6c0.2,0.4,0.5,0.8,0.9,1.2c0.4,0.4,0.8,0.8,1.3,1.1c0.5,0.3,1.2,0.5,1.9,0.7c0.8,0.2,1.7,0.3,2.7,0.3
			c1,0,1.9-0.1,2.7-0.2c0.7-0.2,1.4-0.3,1.9-0.5c0.6-0.2,1.1-0.5,1.5-0.8l5.1,5c-0.6,0.7-1.4,1.3-2.2,1.8c-0.9,0.5-1.8,1-2.8,1.3
			c-1,0.4-2,0.7-3,0.9c-1,0.2-2,0.3-3,0.3c-2.3,0-4.4-0.4-6.3-1.1c-1.9-0.7-3.5-1.7-4.9-3c-1.4-1.3-2.4-2.8-3.2-4.5
			c-0.8-1.7-1.1-3.5-1.1-5.5c0-1.9,0.4-3.8,1.1-5.5c0.7-1.7,1.7-3.2,3-4.5c1.3-1.3,2.8-2.3,4.5-3C55.2,8.9,57,8.5,59,8.5
			c1.9,0,3.8,0.4,5.5,1.1c1.7,0.7,3.2,1.7,4.5,3c1.3,1.3,2.3,2.8,3,4.5c0.7,1.7,1.1,3.5,1.1,5.5V25.5z"/>
	</g>
	<g>
		<g>
			<path class="st0" d="M111,10.9c0,0.2,0,0.4,0,0.5c0,0.1,0,0.4-0.4,1.3c-0.6,1.6-1.2,2.5-1.6,4c-0.1,0.5-0.7,0.9-1.4,0.9
				c-0.4,0-1-0.1-1.3-0.2c-0.4,0-1.5-0.8-1.5-1.4c0-1.7,1.4-2.4,1.6-3.7c0-0.3,0.5-0.8,0.5-1.4c0-0.5-0.1-0.7-0.4-0.7
				c-1.1,0-3,1-3.9,1.8c-1.8,1.6-2.2,2.2-5.1,6.1c-2.5,3.4-4.4,8-5.8,12.3c-0.2,0.6-0.2,2.3-0.2,2.6c0,0.4,0.3,1.4,0.6,1.6
				c0.8,0.6,1.2,1.3,1.9,1.3c2.6,0,6-2.8,9-5.7c0.7-0.7,0.9-0.9,1.7-0.9h0.7c0.6,0,1.1,0.2,1.5,0.9c0.2,0.4,0.3,0.5,0.3,0.7
				c0,0.2-0.2,0.3-0.6,0.7c-3.4,3.2-6.5,7.2-11.3,7.2c-1,0-2.8-0.3-3.5-0.6c-1.4-0.6-3.5-2.2-3.7-3.5c-0.1-1-0.2-1.9-0.2-2.8
				c0-1.8,0.5-4.3,0.6-4.5c2.5-7.2,6.9-15.4,13.8-19.4c0.5-0.3,2.5-0.8,3.8-0.8c0.7,0,1.3,0.1,1.9,0.4c0.3,0.1,0.5,0.3,0.6,0.4
				C109.4,8.8,110.8,9.7,111,10.9"/>
		</g>
		<g>
			<path class="st0" d="M95.6,39.2c-1.1,0-2.9-0.3-3.7-0.7c-1.4-0.7-3.7-2.3-3.9-3.8c-0.2-1.2-0.2-2.1-0.2-2.8
				c0-1.8,0.5-4.3,0.6-4.6c2.3-6.6,6.7-15.3,14-19.6c0.6-0.4,2.7-0.8,3.9-0.8c0.8,0,1.4,0.1,2.1,0.4c0.3,0.2,0.6,0.3,0.8,0.5
				c0.1,0.2,0.4,0.4,0.6,0.7c0.6,0.6,1.3,1.3,1.5,2.3l0,0c0.1,0.3,0.1,0.4,0.1,0.6c0,0.2,0,0.5-0.4,1.4c-0.2,0.6-0.4,1-0.6,1.5
				c-0.4,0.8-0.7,1.5-0.9,2.5c-0.2,0.7-0.9,1.1-1.8,1.1c-0.3,0-0.6-0.1-1-0.1c-0.1,0-0.3-0.1-0.4-0.1c-0.5-0.1-1.8-0.9-1.8-1.7
				c0-1.1,0.5-1.8,0.9-2.4c0.3-0.4,0.6-0.8,0.7-1.3c0-0.2,0.1-0.4,0.3-0.6c0.1-0.2,0.3-0.5,0.3-0.7c0-0.2,0-0.3,0-0.3c0,0,0,0,0,0
				c-1,0-2.8,0.9-3.6,1.7c-1.7,1.6-2.1,2.1-5,6.1c-2.8,3.8-4.6,8.7-5.7,12.2c-0.1,0.5-0.2,2-0.2,2.5c0,0.4,0.3,1.2,0.5,1.3
				c0.2,0.2,0.4,0.4,0.6,0.5c0.5,0.5,0.8,0.7,1.1,0.7c2,0,5-1.9,8.7-5.6c0.7-0.7,1-1,2-1h0.7c0.8,0,1.4,0.3,1.9,1
				c0.2,0.4,0.3,0.6,0.3,0.9c0,0.3-0.2,0.5-0.4,0.7c-0.1,0.1-0.2,0.2-0.3,0.3c-0.5,0.5-1,1-1.5,1.5C102.8,36.3,99.9,39.2,95.6,39.2z
				 M106.3,7.7c-1.2,0-3.1,0.4-3.6,0.7c-7.1,4.2-11.4,12.7-13.7,19.2c-0.1,0.3-0.6,2.7-0.6,4.4c0,0.7,0.1,1.5,0.2,2.7
				c0.2,1.1,2.1,2.6,3.5,3.2c0.7,0.3,2.4,0.6,3.4,0.6c4,0,6.8-2.9,9.6-5.6c0.5-0.5,1-1,1.5-1.5c0.1-0.1,0.2-0.2,0.3-0.3
				c0.1-0.1,0.2-0.1,0.2-0.2c0,0,0-0.2-0.2-0.5c-0.3-0.5-0.7-0.7-1.2-0.7H105c-0.7,0-0.8,0.1-1.5,0.8c-3.9,3.9-7,5.8-9.2,5.8
				c-0.7,0-1.1-0.4-1.6-0.9c-0.2-0.2-0.3-0.3-0.5-0.5c-0.4-0.3-0.7-1.4-0.7-1.9c0,0,0-2,0.2-2.7c1.1-3.5,2.9-8.5,5.8-12.4
				c2.9-3.9,3.3-4.5,5.1-6.2c0.8-0.8,2.8-1.9,4.1-1.9c0.8,0,0.8,0.8,0.8,1c0,0.4-0.2,0.8-0.4,1.1c-0.1,0.1-0.2,0.3-0.2,0.3
				c-0.1,0.7-0.4,1.2-0.8,1.6c-0.4,0.6-0.8,1.1-0.8,2c0,0.3,0.9,1,1.2,1c0.1,0,0.3,0,0.4,0.1c0.3,0,0.6,0.1,0.8,0.1
				c0.5,0,1-0.3,1.1-0.6c0.3-1,0.6-1.7,1-2.6c0.2-0.4,0.4-0.9,0.6-1.4c0.3-0.8,0.3-1,0.3-1.1c0-0.1,0-0.2,0-0.4
				c-0.2-0.7-0.8-1.3-1.3-1.9c-0.3-0.3-0.6-0.5-0.7-0.8c-0.1-0.1-0.3-0.2-0.5-0.3C107.5,7.8,107,7.7,106.3,7.7z"/>
		</g>
		<g>
			<path class="st0" d="M116.5,20.5c0,0.5-0.1,1-0.3,1.5c-0.1,0.5-0.2,0.6-0.2,0.7c0,0.1,0,0.2,0.1,0.2c0,0,0.2,0,0.6-0.4
				c2.5-1.9,4.7-3.2,6.3-3.7c0.1,0,0.4-0.1,0.5-0.1c1.3,0,2.5,0.4,3.3,1.3c0.2,0.2,0.3,0.5,0.3,0.8c0,1.4-1.2,2-1.6,2
				c-0.7,0-1.4-0.5-2-0.5c-0.1,0-0.3,0-0.7,0.2c-4.9,2.3-9.8,6.3-11.4,13c-0.3,1.4-0.8,1.9-1.1,2.2c-0.2,0.3-0.6,0.4-0.8,0.4
				c-0.7,0-1-0.6-1.4-1c-0.5-0.5-0.8-1.2-0.9-1.7c0-1.5,1.9-3,2.4-4.8c1.1-3.4,2.4-6.8,3.1-10.5c0-0.4,0.1-0.6,0.1-0.7
				c0-0.3-0.4-0.6-0.4-1c0-0.4,0.7-1,1.8-1c0.6,0,1.4,0.3,1.5,0.5C116.2,18.6,116.5,19.4,116.5,20.5"/>
		</g>
		<g>
			<path class="st0" d="M109.5,38.5c-0.8,0-1.2-0.5-1.5-0.9c0-0.1-0.1-0.1-0.1-0.2c-0.5-0.5-0.9-1.3-0.9-1.9c0-1,0.6-1.9,1.3-2.8
				c0.5-0.7,1-1.4,1.2-2.1c0.2-0.7,0.5-1.4,0.7-2c0.9-2.7,1.9-5.5,2.4-8.4c0-0.2,0-0.3,0.1-0.5c0-0.1,0-0.2,0-0.2
				c0,0-0.1-0.2-0.1-0.3c-0.1-0.2-0.2-0.4-0.3-0.7l0,0c0-0.6,1-1.4,2.1-1.4c0.7,0,1.6,0.3,1.8,0.7c0.5,0.8,0.7,1.7,0.7,2.7
				c0,0.5-0.1,1.1-0.3,1.7c0,0.1,0,0.1,0,0.2c2.5-1.9,4.7-3.2,6.4-3.8c0.2-0.1,0.5-0.1,0.7-0.1c1.5,0,2.8,0.5,3.6,1.4
				c0.2,0.2,0.4,0.6,0.4,1c0,1.6-1.4,2.4-1.9,2.4c-0.4,0-0.8-0.1-1.2-0.3c-0.3-0.1-0.6-0.2-0.9-0.2c-0.1,0-0.2,0-0.6,0.1
				c-4.2,2-9.5,5.8-11.2,12.8c-0.3,1.5-0.9,2.1-1.2,2.4C110.2,38.4,109.8,38.5,109.5,38.5z M112.9,18.5c0,0.1,0.1,0.3,0.2,0.4
				c0.1,0.2,0.2,0.4,0.2,0.6c0,0.1,0,0.2,0,0.3c0,0.1,0,0.3-0.1,0.5c-0.6,3-1.5,5.8-2.5,8.5c-0.2,0.7-0.5,1.3-0.7,2
				c-0.3,0.8-0.8,1.5-1.3,2.3c-0.6,0.8-1.2,1.6-1.2,2.4c0,0.4,0.4,1.1,0.8,1.5c0.1,0.1,0.1,0.1,0.2,0.2c0.3,0.3,0.5,0.6,1,0.6
				c0.1,0,0.4-0.1,0.5-0.3l0.1-0.1c0.2-0.1,0.7-0.6,1-2c1.7-7.3,7.3-11.2,11.6-13.2c0.4-0.2,0.7-0.2,0.9-0.2c0.4,0,0.7,0.1,1.1,0.2
				c0.3,0.1,0.7,0.2,0.9,0.2c0.2,0,1.2-0.5,1.2-1.6c0-0.2-0.1-0.4-0.2-0.5c-0.9-1-2.3-1.2-3-1.2c-0.1,0-0.3,0-0.4,0.1
				c-1.6,0.5-3.8,1.8-6.2,3.7c-0.3,0.3-0.6,0.4-0.8,0.4c-0.2,0-0.5-0.1-0.5-0.5c0-0.1,0-0.2,0.1-0.3c0-0.1,0.1-0.2,0.1-0.5
				c0.2-0.5,0.3-1,0.3-1.5c0-0.9-0.2-1.7-0.6-2.3c-0.1-0.1-0.6-0.3-1.2-0.3C113.5,17.9,113,18.3,112.9,18.5z"/>
		</g>
		<g>
			<path class="st0" d="M129.7,38.4c-0.5,0-1,0-1.7-0.3c-1-0.4-2.6-1.1-2.9-1.3c-0.9-0.5-1.8-1.6-2.3-3.1c-0.3-0.9-0.5-2.6-0.5-3.5
				c0-0.4,0-0.9,0.2-1.5c1.3-4.6,4.3-8.6,7.8-12.3c0.8-0.8,2.6-2,4.8-2c1.2,0,1.9,0.2,2.8,0.5c0.5,0.2,1.4,1,1.4,2.8
				c0,1.2-0.5,2.2-1,3.3c-0.5,0.9-0.8,1.4-1.4,2.1c-3.1,3.5-6.7,7.5-10.5,9.6c-0.2,0.1-0.3,0.2-0.3,0.4c0,0.7,0.7,1.7,1.1,1.9
				c0.5,0.3,1,0.4,1.4,0.4c0.8,0,1.4-0.2,3.5-1.3c3.1-1.7,5-4.1,7.7-5.8c0.5-0.3,0.7-0.3,0.9-0.3c0.3,0,0.9,0.5,0.9,0.9
				c0,0.4,0,0.5,0,0.6c0,0.2,0,0.5-0.2,0.6c-2.2,1.9-3.1,4.1-10,7.9C130.5,38.4,130.3,38.4,129.7,38.4 M135.5,17.7
				c0-0.4,0-0.5-0.3-0.5c-0.3,0-0.5,0.1-1,0.4c-0.5,0.3-0.5,0.2-0.9,0.6c-2.9,2.6-6.1,6.3-7.1,10.4c0,0.2,0,0.2,0.1,0.2
				c0.1,0,0.2,0,0.3-0.1c2.7-2,4.9-4.5,6.9-7c0.7-0.8,0.5-0.9,1.1-1.9C135.2,19.1,135.5,18.5,135.5,17.7"/>
		</g>
		<g>
			<path class="st0" d="M129.7,38.8c-0.6,0-1.1-0.1-1.8-0.3c-1-0.4-2.6-1.1-3-1.3c-1-0.6-1.9-1.8-2.4-3.3c-0.3-0.9-0.6-2.7-0.6-3.6
				c0-0.5,0.1-1,0.2-1.6c1.4-5.1,4.9-9.3,7.9-12.4c0.8-0.8,2.7-2.2,5.1-2.2c1.3,0,2,0.2,2.9,0.5c0.6,0.2,1.7,1.2,1.7,3.2
				c0,1.3-0.5,2.3-1.1,3.4c-0.5,1-0.9,1.5-1.5,2.2c-2.9,3.3-6.6,7.5-10.6,9.7c0,0-0.1,0-0.1,0.1c0,0.6,0.6,1.4,0.9,1.6
				c0.4,0.2,0.8,0.3,1.2,0.3c0.7,0,1.4-0.2,3.3-1.2c1.7-0.9,3.1-2.1,4.4-3.2c1-0.9,2.1-1.8,3.3-2.6c0.5-0.3,0.8-0.4,1.1-0.4
				c0.5,0,1.3,0.6,1.3,1.3c0,0.3,0,0.4,0,0.5c0,0,0,0,0,0.1c0,0.2,0,0.6-0.4,0.9c-0.5,0.5-1,1-1.6,1.5c-1.5,1.6-3.4,3.6-8.5,6.4
				C130.6,38.8,130.4,38.8,129.7,38.8z M135.1,14.8c-2.2,0-4,1.3-4.6,1.9c-2.9,3.1-6.4,7.2-7.7,12.1c-0.2,0.7-0.2,1.1-0.2,1.4
				c0,0.9,0.2,2.5,0.5,3.4c0.5,1.4,1.2,2.5,2.1,2.9c0.3,0.2,1.8,0.9,2.8,1.2c0.7,0.2,1.1,0.3,1.6,0.3c0.6,0,0.7,0,1.5-0.4
				c5-2.8,6.9-4.7,8.3-6.3c0.5-0.6,1-1.1,1.6-1.6c0.1-0.1,0.1-0.2,0.1-0.4c0-0.1,0-0.1,0-0.2c0-0.1,0-0.2,0-0.4
				c0-0.2-0.4-0.5-0.6-0.5c-0.1,0-0.3,0-0.7,0.3c-1.2,0.7-2.2,1.6-3.2,2.5c-1.3,1.2-2.7,2.4-4.5,3.3c-2.1,1.1-2.8,1.3-3.7,1.3
				c-0.6,0-1.1-0.1-1.6-0.4c-0.5-0.3-1.3-1.3-1.3-2.2c0-0.4,0.2-0.5,0.4-0.7c3.9-2.2,7.5-6.2,10.4-9.5c0.6-0.7,0.9-1.2,1.4-2
				c0.5-1.1,1-2,1-3.1c0-1.6-0.8-2.3-1.2-2.5C136.9,15,136.3,14.8,135.1,14.8z M126.4,29.1c-0.1,0-0.5,0-0.5-0.6l0-0.1
				c1.1-4.4,4.5-8.1,7.2-10.6c0.3-0.3,0.4-0.3,0.6-0.4c0.1,0,0.2-0.1,0.4-0.2c0.4-0.3,0.8-0.5,1.1-0.5c0.6,0,0.6,0.6,0.6,0.9
				c0,0.9-0.4,1.5-0.9,2.3c-0.2,0.4-0.3,0.6-0.4,0.8c-0.1,0.3-0.3,0.6-0.7,1.1c-2,2.4-4.3,5-7,7C126.8,29,126.6,29.1,126.4,29.1z
				 M135.2,17.6c-0.2,0-0.4,0.1-0.7,0.3c-0.2,0.1-0.3,0.2-0.4,0.2c-0.1,0.1-0.2,0.1-0.4,0.3c-2.1,1.8-5.6,5.5-6.9,9.7
				c2.5-2,4.6-4.4,6.6-6.7c0.4-0.4,0.4-0.6,0.6-0.9c0.1-0.2,0.2-0.5,0.5-0.9c0.5-0.7,0.8-1.2,0.8-1.9
				C135.2,17.7,135.2,17.6,135.2,17.6z"/>
		</g>
		<g>
			<path class="st0" d="M158.9,19c0.2,0,0.9,0,1.3,0.6c0.1,0.1,0.1,0.2,0.1,0.3c0,0.2-0.1,0.4-0.2,0.5c-2,2.7-4.4,6.1-5.3,9.6
				c-0.3,1.3-0.6,2.6-0.6,4c0,1.2,0.3,2.4,1,3.4c0,0.1,0.1,0.2,0.1,0.3c0,0.1-0.2,0.5-1,0.6c-0.3,0-0.6,0.2-0.9,0.2
				c-0.7,0-1.7-0.3-1.9-0.9c-0.6-1.3-0.8-2.6-0.8-3.9c0-1.4,0.2-2.1,0.2-2.3c0-0.2,0-0.2-0.2-0.2c-0.2,0-0.6,0.3-1.1,0.8l-2.4,2.3
				c-2.4,2.2-3.8,2.9-5.4,3.4c-0.3,0.1-0.5,0.2-0.7,0.2c-0.5,0-1-0.3-3.2-2c-0.2-0.2-1-1-1-2.7c0-1.5,0.5-3.4,2.7-6.7
				c2.7-4,5.2-5.8,6.5-6.8c2.2-1.6,4.6-2.8,7.2-3.6c0.3-0.1,0.7-0.1,1-0.1c1,0,1.9,0.5,2.8,1.3c0.2,0.2,0.6,0.6,0.7,0.9
				C158,18.6,158.4,19,158.9,19 M153.5,19.2c-4.3,2.3-7.6,4.8-10.2,7.9c-1.9,2.3-3.4,5-3.4,6.3c0,0.5,0.2,1.2,1,1.2
				c0.4,0,1.4-0.5,2.2-1.3c4.2-3.9,9-7,11.3-11.3c0.3-0.6,0.8-1.2,1.3-1.7c0.1-0.1,0.2-0.4,0.2-0.7c0-0.3-0.3-0.9-1-0.9
				C154.8,18.7,154.1,18.9,153.5,19.2"/>
		</g>
		<g>
			<path class="st0" d="M153.4,38.8c-0.7,0-1.9-0.3-2.3-1.1c-0.5-1.2-0.8-2.5-0.8-4c0-0.9,0.1-1.6,0.1-2c-0.1,0.1-0.3,0.3-0.6,0.5
				l-2.5,2.3c-2.4,2.3-3.9,2.9-5.5,3.5c-0.3,0.1-0.6,0.2-0.8,0.2c-0.6,0-1.2-0.4-3.4-2.1c-0.2-0.1-1.1-1-1.1-3
				c0-1.3,0.3-3.2,2.8-6.9c2.7-4,5.2-5.9,6.6-6.9l0,0c2.3-1.7,4.7-2.9,7.4-3.6c0.3-0.1,0.7-0.1,1.1-0.1c1.1,0,2.1,0.5,3,1.4
				c0.2,0.2,0.6,0.7,0.8,1c0.1,0.3,0.4,0.6,0.7,0.6c0.3,0,1.1,0.1,1.6,0.8c0.1,0.2,0.2,0.3,0.2,0.5c0,0.2-0.1,0.5-0.2,0.7
				c-2.1,2.9-4.4,6.2-5.2,9.5c-0.3,1.3-0.6,2.6-0.6,3.9c0,1.2,0.3,2.3,0.9,3.2l0,0c0.1,0.1,0.1,0.3,0.1,0.4c0,0.3-0.3,0.9-1.3,1
				c-0.1,0-0.2,0-0.3,0.1C153.9,38.8,153.7,38.8,153.4,38.8z M150.7,30.8c0.5,0,0.5,0.4,0.5,0.6c0,0,0,0.1,0,0.3c0,0.3-0.2,1-0.2,2
				c0,1.4,0.2,2.6,0.7,3.7c0.2,0.4,1,0.7,1.6,0.7c0.1,0,0.3,0,0.4-0.1c0.1,0,0.2-0.1,0.4-0.1c0.4-0.1,0.6-0.2,0.6-0.3c0,0,0,0,0-0.1
				c-0.7-1-1-2.2-1-3.6c0-1.4,0.3-2.8,0.6-4.1c0.9-3.5,3.2-6.8,5.3-9.7c0.1-0.1,0.1-0.2,0.1-0.3c0,0,0,0,0-0.1
				c-0.3-0.4-0.8-0.4-1-0.4c-0.6,0-1.2-0.4-1.4-1.1c-0.1-0.2-0.3-0.5-0.6-0.8c-0.8-0.8-1.6-1.2-2.5-1.2c-0.3,0-0.6,0-0.9,0.1
				c-2.6,0.7-4.9,1.9-7.1,3.5l0,0c-1.3,1-3.8,2.8-6.4,6.7c-2.4,3.5-2.7,5.3-2.7,6.5c0,1.7,0.8,2.3,0.9,2.4c2.1,1.7,2.6,2,2.9,2
				c0.1,0,0.4-0.1,0.6-0.2c1.5-0.5,2.9-1.1,5.3-3.3l2.4-2.3C150.3,30.8,150.6,30.8,150.7,30.8z M150.7,31.5
				C150.7,31.5,150.7,31.5,150.7,31.5C150.7,31.5,150.7,31.5,150.7,31.5C150.7,31.5,150.7,31.5,150.7,31.5z M140.9,34.9
				c-0.9,0-1.4-0.6-1.4-1.6c0-1.6,1.8-4.5,3.5-6.5c2.5-3,5.8-5.6,10.3-8c0.6-0.3,1.3-0.5,1.6-0.5c1,0,1.4,0.7,1.4,1.3
				c0,0.4-0.1,0.7-0.3,0.9c-0.5,0.5-1,1.1-1.3,1.6c-1.7,3.1-4.6,5.5-7.6,8.1c-1.2,1-2.5,2.1-3.7,3.2
				C142.5,34.4,141.4,34.9,140.9,34.9z M154.9,19.1c-0.1,0-0.7,0.1-1.2,0.4l0,0c-4.4,2.4-7.6,4.8-10.1,7.8c-1.9,2.3-3.3,4.9-3.3,6.1
				c0,0.9,0.5,0.9,0.6,0.9c0.2,0,1.2-0.4,2-1.2c1.2-1.2,2.5-2.2,3.8-3.3c3-2.5,5.8-4.9,7.5-7.9c0.3-0.6,0.8-1.3,1.4-1.8
				c0,0,0.1-0.2,0.1-0.4C155.6,19.5,155.5,19.1,154.9,19.1z"/>
		</g>
		<g>
			<path class="st0" d="M168.8,18.7c-0.5,1-1,2.7-1,2.8c0,0.1,0.1,0.1,0.2,0.1c0.1,0,0.7-0.1,1.1-0.2c2-0.4,4.6-1.4,6.1-2.3
				c0.2-0.1,0.4-0.2,0.5-0.2c0.8,0,2.2,0.6,2.2,1.2c0,0.6-0.5,1.3-1.5,1.7c-1.2,0.5-1.2,0.6-2,1c-2.2,0.9-6.1,1.7-7,2
				c-0.4,0.1-0.7,0.4-0.9,0.7c-0.4,0.6-0.6,1.5-0.8,2.2c-0.1,0.5-0.4,1-0.5,1.4c-0.3,1.5-1.8,5.3-2.1,7.6c0,0.4-0.5,1.6-1.1,1.9
				c-0.2,0.1-0.5,0.1-0.7,0.1c-0.5,0-1.3-0.2-1.6-0.5c-0.4-0.3-0.5-0.7-0.5-1.1c0-0.4,0-1,0.2-1.4c1.1-3.4,1.9-7.3,3.4-10.8
				c0-0.1,0.1-0.2,0.1-0.3c0-0.1,0-0.2-0.2-0.3c-1.6-0.8-1.9-2-2.9-2.9c-0.2-0.2-0.2-0.4-0.2-0.5c0-0.3,0.2-0.4,0.5-0.6
				c0.3-0.1,0.5-0.2,0.9-0.2c1,0,2.1,0.7,2.9,0.7c0.4,0,0.7-0.2,0.8-0.6c0.1-0.5,0.4-1.2,0.7-2.1c1.1-2.8,2.3-6.3,3.9-9.6
				c0.3-0.6,0.3-0.6,0.5-0.6c0.7,0,0.8-0.2,1.3-0.2c0.4,0,1.2,0.1,1.7,0.4c0.2,0.1,0.4,0.2,0.4,0.3c0,0.1,0,0.2,0,0.5
				C172.5,12.5,170.3,15.6,168.8,18.7"/>
		</g>
		<g>
			<path class="st0" d="M161.3,39.1c-0.6,0-1.4-0.2-1.9-0.6c-0.4-0.3-0.6-0.8-0.6-1.4c0-0.4,0.1-1,0.2-1.5c0.4-1.3,0.8-2.7,1.2-4.1
				c0.6-2.2,1.3-4.6,2.2-6.7l0-0.1c0,0,0,0,0,0c0,0,0,0,0,0c-1.1-0.5-1.6-1.2-2.1-1.9c-0.3-0.4-0.6-0.7-0.9-1
				c-0.4-0.3-0.4-0.7-0.4-0.8c0-0.5,0.4-0.7,0.7-0.9c0.3-0.1,0.6-0.3,1.1-0.3c0.6,0,1.2,0.2,1.7,0.4c0.5,0.2,0.9,0.3,1.2,0.3
				c0.2,0,0.4-0.1,0.4-0.3c0.2-0.6,0.4-1.3,0.7-2.2c0.3-0.8,0.6-1.6,0.9-2.5c0.8-2.2,1.8-4.8,2.9-7.2c0.3-0.6,0.4-0.8,0.8-0.8
				c0.3,0,0.5-0.1,0.7-0.1c0.2-0.1,0.3-0.1,0.6-0.1c0.5,0,1.3,0.1,1.9,0.4c0.2,0.1,0.6,0.3,0.6,0.7c0,0.1,0,0.3-0.1,0.6
				c-0.4,2.6-1.7,4.9-2.9,7.2c-0.5,0.9-0.9,1.8-1.3,2.6l0,0c-0.3,0.7-0.7,1.8-0.9,2.4c0.2,0,0.5-0.1,0.8-0.1c2-0.4,4.5-1.4,6-2.2
				c0.3-0.2,0.5-0.3,0.7-0.3c0.8,0,2.6,0.7,2.6,1.5c0,0.8-0.7,1.6-1.7,2.1c-0.6,0.3-0.9,0.4-1.2,0.6c-0.2,0.1-0.5,0.2-0.9,0.4
				c-1.5,0.6-3.7,1.2-5.3,1.6c-0.8,0.2-1.4,0.4-1.7,0.5c-0.3,0.1-0.5,0.3-0.7,0.5c-0.3,0.6-0.6,1.4-0.7,2.1
				c-0.1,0.3-0.2,0.5-0.3,0.7c-0.1,0.3-0.2,0.5-0.2,0.7c-0.1,0.6-0.4,1.6-0.8,2.7c-0.5,1.7-1.1,3.5-1.3,4.8c0,0.4-0.5,1.8-1.3,2.2
				C161.9,39.1,161.5,39.1,161.3,39.1z M160.9,20.6c-0.3,0-0.5,0.1-0.7,0.2c-0.3,0.2-0.3,0.2-0.3,0.3c0,0.1,0,0.2,0.1,0.3
				c0.4,0.4,0.7,0.8,1,1.2c0.5,0.6,0.9,1.2,1.8,1.7c0.3,0.1,0.4,0.3,0.4,0.6c0,0.1,0,0.2-0.1,0.3l0,0.1c-0.9,2.1-1.5,4.4-2.2,6.7
				c-0.4,1.4-0.8,2.8-1.2,4.1c-0.1,0.3-0.2,0.9-0.2,1.2c0,0.2,0.1,0.6,0.4,0.8c0.3,0.2,1,0.4,1.4,0.4c0.2,0,0.4,0,0.5-0.1
				c0.5-0.2,0.9-1.3,0.9-1.6c0.2-1.4,0.8-3.3,1.3-5c0.3-1.1,0.7-2.1,0.8-2.7c0.1-0.3,0.2-0.6,0.3-0.9c0.1-0.2,0.2-0.4,0.2-0.6
				c0.2-0.7,0.4-1.6,0.8-2.3c0.2-0.4,0.6-0.7,1.1-0.8c0.3-0.1,1-0.3,1.8-0.5c1.6-0.4,3.8-1,5.3-1.6c0.4-0.1,0.5-0.2,0.8-0.4
				c0.3-0.1,0.6-0.3,1.3-0.6c0.9-0.4,1.3-1,1.3-1.4c-0.1-0.2-1.2-0.8-1.9-0.8c0,0-0.1,0-0.3,0.2c-1.5,0.9-4.1,1.9-6.2,2.3
				c-0.3,0.1-1,0.2-1.2,0.2c-0.3,0-0.5-0.2-0.5-0.5c0-0.3,0.7-2.1,1.1-3c0.4-0.9,0.9-1.8,1.4-2.7c1.2-2.2,2.4-4.5,2.8-6.9
				c0-0.2,0-0.3,0-0.3c0,0-0.1,0-0.2-0.1c-0.5-0.2-1.2-0.3-1.6-0.3c-0.1,0-0.2,0-0.4,0.1c-0.2,0.1-0.4,0.1-0.9,0.2
				c0,0.1-0.1,0.2-0.2,0.4c-1.1,2.4-2.1,4.9-2.9,7.1c-0.3,0.9-0.6,1.7-0.9,2.5c-0.3,0.9-0.6,1.6-0.7,2.1c-0.1,0.6-0.5,0.9-1.1,0.9
				c-0.5,0-0.9-0.2-1.5-0.4C161.9,20.8,161.4,20.6,160.9,20.6z"/>
		</g>
		<g>
			<path class="st0" d="M179.3,36.3c-1,0.9-2.6,2.2-4.7,2.2c-1.4,0-2.9-1.9-3.4-3.6c-0.2-0.6-0.2-1.3-0.2-1.9c0-1.1,0.2-2.1,0.7-3.7
				c0.3-0.9,0.5-1.6,0.8-2.3c1.4-3.3,2.7-6.6,4.4-10.1c0.5-1,1.4-1.2,2.3-1.2c0.5,0,1,0.1,1.4,0.4c0.2,0.2,0.4,0.3,0.4,0.7
				c0,2.4-1.9,3.5-2.9,5.8c-0.8,1.7-2,4.8-2.7,6.4c-0.8,2-1.1,3.8-1.1,4.4c0,0.4,0,1.4,0.8,1.4c1,0,1.5-0.3,3.3-1.5
				c1.1-0.8,1.4-1,2.1-1c0.4,0,0.9,0.1,1.1,0.3c0.3,0.2,0.3,0.5,0.3,0.6c0,0.5-0.3,0.8-0.7,1.2L179.3,36.3z M185.6,8
				c0,0.3,0,0.6-0.2,0.8c-0.8,1-1.9,2.2-2.9,2.2c-0.9,0-1.6-0.5-1.8-0.9c-0.2-0.5-0.3-1-0.3-1.5c0-0.6,0.2-1.4,0.6-1.9
				c0.5-0.5,1.3-0.8,2.2-0.8c0.7,0,1.6,0.2,1.9,0.6C185.6,7,185.6,7.6,185.6,8"/>
		</g>
		<g>
			<path class="st0" d="M174.7,38.8c-1.5,0-3.2-2-3.7-3.8c-0.2-0.6-0.2-1.2-0.2-2c0-1.2,0.2-2.3,0.7-3.8c0.1-0.4,0.3-0.7,0.4-1.1
				c0.1-0.4,0.3-0.8,0.4-1.2c0.3-0.7,0.6-1.4,0.9-2.1c1.1-2.6,2.2-5.2,3.5-8c0.4-0.9,1.4-1.4,2.6-1.4c0.3,0,1.1,0,1.6,0.5
				c0.3,0.2,0.5,0.4,0.5,1c0,1.6-0.8,2.7-1.6,3.9c-0.5,0.6-0.9,1.3-1.3,2.1c-0.8,1.7-2,4.8-2.7,6.4c-0.8,2.1-1.1,3.7-1.1,4.3
				c0,0.4,0.1,1.1,0.5,1.1c0.9,0,1.3-0.2,3.1-1.5c1.1-0.8,1.5-1.1,2.3-1.1c0.4,0,1,0.1,1.4,0.4c0.4,0.3,0.4,0.7,0.4,0.9
				c0,0.6-0.3,1-0.8,1.5l-1.9,1.7C177.9,38.1,176.3,38.8,174.7,38.8z M179.2,16.1c-0.7,0-1.5,0.2-1.9,1c-1.3,2.7-2.4,5.4-3.5,7.9
				c-0.3,0.7-0.6,1.4-0.9,2.1c-0.1,0.3-0.3,0.7-0.4,1.1c-0.1,0.4-0.2,0.7-0.4,1.1c-0.5,1.4-0.7,2.4-0.7,3.5c0,0.7,0.1,1.3,0.2,1.8
				c0.5,1.5,1.9,3.3,3,3.3c1.4,0,2.9-0.7,4.4-2.1l1.9-1.7c0.4-0.4,0.6-0.6,0.6-1c0-0.2,0-0.2-0.1-0.4c-0.2-0.1-0.5-0.2-0.9-0.2
				c-0.6,0-0.8,0.1-1.9,0.9c-1.9,1.3-2.4,1.6-3.5,1.6c-0.4,0-1.2-0.2-1.2-1.8c0-0.8,0.3-2.5,1.1-4.6c0.6-1.7,1.9-4.8,2.7-6.5
				c0.4-0.8,0.9-1.5,1.4-2.2c0.8-1.1,1.5-2,1.5-3.4c0-0.3-0.1-0.3-0.2-0.4C180.1,16.2,179.7,16.1,179.2,16.1z M182.5,11.4
				c-1,0-1.8-0.6-2.1-1.1c-0.2-0.5-0.4-1.1-0.4-1.7c0-0.6,0.2-1.5,0.7-2.1c0.5-0.6,1.4-0.9,2.5-0.9c0.7,0,1.7,0.2,2.2,0.7
				c0.4,0.5,0.6,1,0.6,1.7c0,0.4-0.1,0.8-0.3,1C184.7,10.3,183.6,11.4,182.5,11.4z M183.2,6.3c-0.6,0-1.5,0.1-1.9,0.6
				c-0.3,0.4-0.5,1-0.5,1.7c0,0.5,0.1,1,0.3,1.4c0.1,0.3,0.7,0.7,1.5,0.7c0.9,0,2.1-1.5,2.6-2.1c0.1-0.1,0.1-0.3,0.1-0.6
				c0-0.3,0-0.8-0.4-1.2C184.6,6.5,183.9,6.3,183.2,6.3z"/>
		</g>
		<g>
			<path class="st0" d="M185.1,33.8c-0.1,0.6-0.1,0.7-0.1,0.9c0,0.1,0.2,0.3,0.4,0.3c0.3,0,0.7,0,1.2-0.6c1.6-1.9,3.5-5.1,4.8-8.2
				c0.4-0.9,0.4-1.3,0.6-1.9c0.2-0.5,0.4-1.4,0.4-2.4c0-0.5-0.2-1-0.5-1.3c-0.3-0.3-0.6-0.8-0.6-1.3c0-0.6,0.5-1.1,1.4-1.1
				c1.2,0,1.8,0.2,2.4,1.2c0.7,1.2,1.5,1.4,2.2,1.4c2,0,3.8-1.5,5.8-1.5c0.5,0,1.4,0.2,2.1,0.6c0.5,0.3,0.6,0.5,0.6,1
				c0,0.1,0,0.2-0.3,0.4c-2.4,1.4-4.8,1.6-6,2.1c-0.4,0.1-0.8,0.3-1,0.3c-0.6,0-1.4-0.3-1.9-0.3c-0.3,0-0.4,0-0.6,0.2
				c-0.2,0.1-0.3,0.4-0.5,1.4c-1.1,4.1-3.3,7.7-6,11.1c-0.9,1.1-1.2,1.3-1.8,1.9c-0.4,0.4-1,0.7-1.6,0.7c-0.9,0-1.2-0.5-2.1-1.1
				c-1.4-1-1.6-1.1-1.8-1.9c-0.1-0.3-0.1-0.8-0.1-1.1c0-1,0.1-1.5,0.4-2.8c0.2-0.7,0.1-1,0.8-3.4c0.9-3.6,1.9-7.2,2.4-10.9
				c0.1-0.7,0.9-1,1.1-1c0.3,0,0.7,0.1,1,0.1c0.5,0,0.9,0,1.3,0.4c0.2,0.1,0.2,0.3,0.2,0.7c0,2.8-0.9,3-1.4,5.3
				C186.8,26.6,185.9,30.2,185.1,33.8"/>
		</g>
		<g>
			<path class="st0" d="M185.8,39.1c-0.8,0-1.2-0.3-1.7-0.7c-0.2-0.1-0.4-0.3-0.6-0.5c-1.4-0.9-1.7-1.1-2-2.1
				c-0.1-0.4-0.1-0.9-0.1-1.2c0-1,0.1-1.6,0.4-2.9c0.1-0.2,0.1-0.4,0.1-0.7c0.1-0.5,0.2-1.2,0.6-2.8l0.3-1.2c0.8-3.2,1.6-6.5,2-9.7
				c0.1-0.9,1.1-1.3,1.4-1.3c0.2,0,0.4,0,0.5,0c0.7,0.1,1.4-0.1,2.1,0.5c0.3,0.2,0.3,0.6,0.3,1c0,1.8-0.4,2.6-0.7,3.4
				c-0.2,0.5-0.5,1.1-0.7,2c-0.4,1.8-0.8,3.7-1.2,5.5c-0.4,1.8-0.8,3.6-1.2,5.5l0,0c-0.1,0.4-0.1,0.6-0.1,0.7c0.3,0,0.6-0.1,0.9-0.4
				c1.6-1.9,3.5-5.1,4.7-8.1c0.2-0.4,0.3-0.8,0.3-1.1c0.1-0.3,0.1-0.6,0.3-0.9c0.2-0.4,0.3-1.4,0.3-2.3c0-0.4-0.2-0.8-0.4-1
				c-0.4-0.3-0.7-0.9-0.7-1.5c0-0.7,0.6-1.5,1.8-1.5c1.2,0,2,0.2,2.7,1.4c0.7,1.1,1.3,1.3,1.9,1.3c0.9,0,1.8-0.4,2.7-0.7
				c1-0.4,1.9-0.8,3-0.8c0.6,0,1.5,0.2,2.3,0.7c0.6,0.4,0.8,0.7,0.8,1.3c0,0.3-0.1,0.5-0.5,0.7c-1.6,0.9-3.3,1.3-4.5,1.6
				c-0.6,0.2-1.2,0.3-1.5,0.5c-0.4,0.2-0.9,0.3-1.2,0.3c-0.4,0-0.7-0.1-1.1-0.1c-0.3-0.1-0.6-0.1-0.9-0.1c-0.2,0-0.3,0-0.4,0.1
				c-0.1,0.1-0.2,0.4-0.4,1.3c-1,3.7-2.9,7.2-6,11.2c-0.6,0.7-0.9,1.1-1.3,1.4c-0.2,0.2-0.3,0.3-0.5,0.5
				C187.2,38.7,186.5,39.1,185.8,39.1z M186.4,16.8c-0.1,0-0.7,0.2-0.7,0.7c-0.4,3.3-1.2,6.6-2.1,9.8l-0.3,1.2
				c-0.4,1.6-0.5,2.3-0.6,2.7c0,0.3-0.1,0.5-0.2,0.7c-0.3,1.2-0.4,1.8-0.4,2.7c0,0.3,0,0.7,0.1,1c0.2,0.7,0.3,0.7,1.7,1.7
				c0.3,0.2,0.5,0.3,0.6,0.5c0.4,0.4,0.7,0.6,1.2,0.6c0.5,0,1.1-0.3,1.4-0.6c0.2-0.2,0.4-0.4,0.6-0.5c0.3-0.3,0.7-0.6,1.2-1.3
				c3.1-3.9,5-7.3,5.9-10.9c0.3-1.1,0.4-1.4,0.7-1.6c0.3-0.3,0.6-0.3,0.9-0.3c0.3,0,0.7,0.1,1,0.1c0.3,0.1,0.7,0.1,0.9,0.1
				c0.2,0,0.7-0.2,0.9-0.2c0.4-0.2,1-0.3,1.6-0.5c1.2-0.3,2.7-0.7,4.3-1.6c0.1,0,0.1-0.1,0.1-0.1c0-0.3,0-0.4-0.4-0.6
				c-0.6-0.4-1.4-0.6-1.9-0.6c-0.9,0-1.8,0.4-2.7,0.7c-1,0.4-1.9,0.8-3,0.8c-1,0-1.8-0.5-2.5-1.6c-0.5-0.8-0.9-1-2.1-1
				c-0.6,0-1,0.3-1,0.7c0,0.3,0.3,0.8,0.5,1c0.4,0.4,0.6,1,0.6,1.5c0,1-0.2,2.1-0.4,2.5c-0.1,0.3-0.2,0.5-0.3,0.8
				c-0.1,0.3-0.2,0.7-0.4,1.2c-1.3,3.1-3.2,6.4-4.8,8.3c-0.6,0.7-1.2,0.7-1.5,0.7c-0.4,0-0.7-0.3-0.7-0.6c0-0.2,0-0.3,0.1-0.9
				c0.4-1.8,0.8-3.7,1.2-5.5c0.4-1.8,0.8-3.6,1.2-5.4c0.2-0.9,0.5-1.6,0.7-2.1c0.4-0.8,0.7-1.5,0.7-3.2c0-0.3,0-0.4-0.1-0.4
				c-0.3-0.3-0.6-0.3-1.1-0.3c-0.2,0-0.4,0-0.6-0.1C186.7,16.8,186.5,16.8,186.4,16.8z"/>
		</g>
		<g>
			<path class="st0" d="M214.1,19.5c1.8,0,2.9-0.1,3.9-0.1c1.4,0,2.8,0.5,2.8,1.2c0,0.6-1.1,0.7-1.3,1c-0.1,0.2-0.2,0.2-0.5,0.3
				c-0.9,0.1-2.2,0.6-3.4,0.8c-0.9,0.1-1.5,0.1-1.8,0.1c-0.4,0-0.5,0-0.5,0.4c-1.2,4.8-2.8,9.1-5.7,12.1c-1.3,1.4-2.5,2.7-4.1,2.7
				c-0.4,0-0.8-0.1-1.1-0.2c-1.7-0.8-3-1.8-3.4-2.9c-0.5-1.3-0.7-2.6-0.7-3.8c0-3.7,1.9-7,3.9-10.1c0.6-1,0.6-0.7,1.1-1.4
				c1.4-2,3.4-4.2,5.3-4.2c0.7,0,1.6,0.2,2.4,0.9c0.4,0.3,0.5,0.4,0.6,0.8C212.1,18.1,212.7,19.5,214.1,19.5 M209.1,19.3
				c-0.1-0.5-0.3-0.8-0.5-0.8c-0.2,0-0.5,0.2-0.7,0.5c-0.2,0.2-0.6,0.5-0.9,0.8c-1.4,1.8-5.7,7.4-5.7,12.7c0,0.1,0,0.3,0.1,0.6
				c0.1,0.4,0.7,1.2,1.1,1.5c0.1,0.1,0.3,0.1,0.4,0.1c0.5,0,0.7-0.3,0.9-0.4c0.3-0.1,0.4-0.3,0.8-0.8c2.6-3.9,5.1-7.5,5.1-12.1
				c0-0.2,0-0.7,0-1c0-0.3-0.1-0.4-0.3-0.5C209.2,19.8,209.1,19.5,209.1,19.3"/>
		</g>
		<g>
			<path class="st0" d="M203.5,38.2c-0.5,0-0.9-0.1-1.2-0.3c-1.3-0.6-3-1.7-3.6-3c-0.5-1.2-0.7-2.5-0.7-3.9c0-4,2.1-7.4,4-10.3
				c0.4-0.6,0.5-0.7,0.7-0.9c0.1-0.1,0.2-0.2,0.4-0.5c2.1-2.9,3.9-4.3,5.6-4.3c0.7,0,1.8,0.2,2.6,1l0.1,0.1c0.3,0.3,0.5,0.4,0.6,0.8
				c0.5,1.4,1,2.3,2,2.3c1,0,1.8,0,2.5-0.1c0.5,0,1-0.1,1.4-0.1c1.5,0,3.2,0.5,3.2,1.5c0,0.6-0.6,0.9-1.1,1.1
				c-0.1,0-0.2,0.1-0.3,0.1c-0.2,0.3-0.4,0.4-0.7,0.4c-0.4,0.1-0.9,0.2-1.5,0.3c-0.6,0.2-1.3,0.3-1.9,0.4c-0.9,0.1-1.5,0.1-1.8,0.1
				c-0.1,0-0.1,0-0.2,0c0,0,0,0,0,0.1c-1.4,5.7-3.2,9.5-5.8,12.3C206.6,36.8,205.2,38.2,203.5,38.2z M208.7,15.7c-1.5,0-3.1,1.3-5,4
				c-0.2,0.3-0.3,0.4-0.5,0.5c-0.1,0.1-0.3,0.3-0.6,0.8c-1.9,2.8-3.9,6.1-3.9,9.9c0,1.3,0.2,2.6,0.7,3.6c0.4,0.9,1.5,1.8,3.2,2.7
				c0.2,0.1,0.6,0.2,0.9,0.2c1.4,0,2.6-1.2,3.8-2.5c2.5-2.7,4.3-6.4,5.6-12c0.2-0.5,0.4-0.6,0.9-0.6c0.3,0,0.8,0,1.7-0.1
				c0.6-0.1,1.2-0.3,1.9-0.4c0.6-0.1,1.1-0.3,1.5-0.3c0.1,0,0.2,0,0.2,0c0,0,0,0,0,0c0.1-0.2,0.3-0.3,0.6-0.4
				c0.2-0.1,0.6-0.2,0.6-0.4c0-0.3-1-0.8-2.4-0.8c-0.4,0-0.9,0-1.4,0.1c-0.7,0-1.5,0.1-2.5,0.1c-1.7,0-2.3-1.8-2.7-2.7
				c-0.1-0.2-0.2-0.3-0.4-0.5l-0.1-0.1C210.1,15.9,209.3,15.7,208.7,15.7z M219.8,21.7L219.8,21.7L219.8,21.7z M203,35
				c-0.2,0-0.4,0-0.6-0.2c-0.5-0.3-1.1-1.3-1.2-1.7c-0.2-0.4-0.2-0.6-0.2-0.8c0-5,3.6-10.2,5.7-12.9c0.1-0.2,0.4-0.4,0.6-0.5
				c0.1-0.1,0.2-0.2,0.3-0.2c0.1-0.1,0.5-0.6,1-0.6c0.5,0,0.7,0.6,0.8,1l0,0c0,0.1,0.1,0.3,0.3,0.5l0,0c0.2,0.1,0.3,0.3,0.3,0.7
				c0,0.2,0,0.6,0,1c0,4.6-2.4,8.1-4.9,11.9l-0.2,0.3c-0.4,0.6-0.5,0.8-0.9,0.9c0,0,0,0-0.1,0.1C203.8,34.8,203.5,35,203,35z
				 M208.5,18.9c-0.1,0-0.2,0.1-0.3,0.3c-0.1,0.1-0.3,0.2-0.4,0.4c-0.2,0.1-0.3,0.3-0.4,0.4c-2.1,2.6-5.6,7.7-5.6,12.5
				c0,0.1,0,0.2,0.1,0.5c0.1,0.4,0.6,1.1,1,1.3c0,0,0.1,0,0.2,0c0.2,0,0.4-0.1,0.5-0.2c0.1-0.1,0.1-0.1,0.2-0.1
				c0.2-0.1,0.3-0.2,0.6-0.7l0.2-0.3c2.6-3.9,4.8-7.2,4.8-11.5c0-0.6,0-0.8,0-0.9c0-0.2,0-0.2-0.1-0.3l-0.1-0.1
				c-0.2-0.2-0.4-0.5-0.5-0.8C208.6,19.1,208.6,19,208.5,18.9z"/>
		</g>
		<g>
			<path class="st0" d="M229.6,19.8c0,1.7-0.7,2.9-1.3,3.8c-0.4,0.5-0.4,0.5-0.6,0.5c-0.5,0-1.3-0.3-1.6-0.6
				c-0.4-0.3-0.7-0.8-0.7-1.4c0-0.1,0-0.2,0.1-0.4c0.4-0.7,0.8-1.3,0.8-2.1c0-0.4-0.1-0.9-0.3-1.2c-0.2-0.3-0.6-0.6-1-0.6
				c-0.3,0-2.4,2.6-2.8,4.7c0,0.3-0.1,0.6-0.1,1.2c0,0.3,0.2,2.3,0.3,2.9c0.4,3.4,1.4,8.5,1.4,10.3c0,0.4-0.2,0.6-0.4,0.8
				c-0.8,0.8-1.6,1.6-2.9,1.6c-0.4,0-0.9-0.1-1.1-0.2c-3-1.2-5.1-3.6-6.6-6.1c-0.1-0.2-0.3-0.5-0.3-0.7c0-0.7,0.7-1.7,1.6-1.7
				c0.9,0,1.3,0.1,1.7,0.6c1,1.4,1.6,3.1,2.9,4.3c0.5,0.4,0.7,0.5,0.9,0.5c0.3,0,0.5-0.2,0.5-0.4c0-0.2,0-0.3-0.2-1.4
				c-0.6-3-1.5-9.8-1.5-10.7c0-1.2,0.5-3.8,1.6-5.5c1.3-2.1,3.2-2.9,4-2.9c2.5,0,3.5,0.6,4.4,1.6C229.4,17.5,229.6,18.9,229.6,19.8"
				/>
		</g>
		<g>
			<path class="st0" d="M220.7,39.6c-0.4,0-1-0.1-1.3-0.2c-2.7-1.1-5-3.2-6.8-6.2c0,0-0.3-0.5-0.3-0.9c0-0.8,0.8-2,2-2
				c1,0,1.5,0.1,2,0.8c0.4,0.6,0.7,1.2,1.1,1.7c0.5,0.9,1,1.8,1.8,2.6c0.4,0.4,0.6,0.4,0.7,0.4c0.1,0,0.1,0,0.1,0
				c0-0.1,0-0.2-0.2-1.3c-0.6-3.1-1.5-9.9-1.5-10.8c0-1.2,0.5-3.9,1.7-5.7c1.4-2.2,3.4-3.1,4.3-3.1c2.5,0,3.6,0.6,4.7,1.7
				c0.7,0.8,1,2.2,1,3.2c0,1.5-0.5,2.8-1.4,4c-0.4,0.5-0.5,0.6-0.9,0.6c-0.6,0-1.5-0.4-1.8-0.7c-0.5-0.4-0.8-1-0.8-1.7
				c0-0.2,0.1-0.4,0.2-0.6c0.4-0.7,0.7-1.2,0.7-1.9c0-0.3-0.1-0.8-0.3-1c-0.1-0.2-0.4-0.4-0.6-0.4c-0.4,0.3-2.1,2.5-2.5,4.4
				c0,0.3-0.1,0.6-0.1,1.1c0,0.2,0.2,2.3,0.3,2.8c0.2,1.4,0.4,3.1,0.7,4.7c0.4,2.3,0.7,4.6,0.7,5.7c0,0.4-0.2,0.8-0.5,1.1
				C223,38.7,222.1,39.6,220.7,39.6z M214.3,30.9c-0.7,0-1.3,0.8-1.3,1.3c0,0.1,0.1,0.3,0.2,0.5c1.7,2.9,3.9,4.9,6.4,5.9
				c0.2,0.1,0.6,0.2,1,0.2c1.1,0,1.8-0.7,2.6-1.5c0.2-0.2,0.3-0.4,0.3-0.6c0-1.1-0.4-3.3-0.7-5.6c-0.3-1.6-0.5-3.3-0.7-4.7
				c-0.1-0.5-0.3-2.6-0.3-2.9c0-0.6,0-0.9,0.1-1.2c0.4-2,2.5-5,3.1-5c0.5,0,1.1,0.4,1.3,0.8c0.2,0.4,0.4,1,0.4,1.4
				c0,0.9-0.4,1.6-0.8,2.3c-0.1,0.1-0.1,0.2-0.1,0.2c0,0.5,0.2,0.9,0.5,1.2c0.3,0.2,1,0.5,1.4,0.5c0,0,0,0,0.1,0
				c0,0,0.2-0.2,0.3-0.4c0.8-1.1,1.2-2.2,1.2-3.5c0-0.9-0.2-2.1-0.8-2.7c-0.9-1-1.9-1.5-4.2-1.5c-0.7,0-2.4,0.7-3.7,2.7
				c-1,1.6-1.6,4.1-1.6,5.3c0,0.9,0.8,7.7,1.4,10.6c0.2,1.2,0.2,1.3,0.2,1.5c0,0.4-0.4,0.7-0.8,0.7c-0.4,0-0.7-0.2-1.1-0.6
				c-0.9-0.8-1.4-1.8-2-2.7c-0.3-0.6-0.6-1.1-1-1.7C215.5,31,215.2,30.9,214.3,30.9z M225.1,18"/>
		</g>
	</g>
</g>
<g class="st1">
	<g class="st2">
		<linearGradient id="SVGID_1_" gradientUnits="userSpaceOnUse" x1="16.4459" y1="47.1616" x2="65.2332" y2="-1.6258">
			<stop  offset="0" style="stop-color:#583787"/>
			<stop  offset="1" style="stop-color:#BF2645"/>
		</linearGradient>
		<path class="st3" d="M59.1,1.2c-7.7,0-14.4,4-18.2,10c-3.8-6-10.6-10-18.2-10C10.7,1.2,1,10.8,1,22.8c0,11.9,9.7,21.6,21.6,21.6
			c7.7,0,14.4-4,18.2-10c3.8,6,10.6,10,18.2,10c11.9,0,21.6-9.7,21.6-21.6C80.7,10.8,71,1.2,59.1,1.2z"/>
		<path class="st0" d="M22.6,8.9c-2.3,0-4.4,0.5-6.3,1.5V0H8.5v23c0,7.8,6.3,14.1,14.1,14.1c7.8,0,14.1-6.3,14.1-14.1
			C36.7,15.2,30.4,8.9,22.6,8.9z M22.6,29.3c-3.5,0-6.3-2.8-6.3-6.3c0-3.5,2.8-6.3,6.3-6.3c3.5,0,6.3,2.8,6.3,6.3
			C28.9,26.5,26.1,29.3,22.6,29.3z"/>
		<g>
			<path class="st0" d="M53.7,25.7c0.2,0.4,0.5,0.8,0.9,1.2c0.4,0.4,0.8,0.8,1.3,1.1c0.5,0.3,1.2,0.5,1.9,0.7
				c0.8,0.2,1.7,0.3,2.7,0.3c1,0,1.9-0.1,2.7-0.2c0.7-0.2,1.4-0.3,1.9-0.5c0.6-0.2,1.1-0.5,1.5-0.8l5.1,5c-0.6,0.7-1.4,1.3-2.2,1.8
				c-0.9,0.5-1.8,1-2.8,1.3c-1,0.4-2,0.7-3,0.9c-1,0.2-2.1,0.3-3,0.3c-2.3,0-4.4-0.4-6.4-1.1c-1.9-0.7-3.6-1.7-4.9-3
				c-1.4-1.3-2.4-2.8-3.2-4.5c-0.8-1.7-1.1-3.5-1.1-5.5c0-1.9,0.4-3.8,1.1-5.5c0.7-1.7,1.7-3.2,3-4.5c1.3-1.3,2.8-2.3,4.5-3
				c1.7-0.7,3.5-1.1,5.5-1.1c1.9,0,3.8,0.4,5.5,1.1c1.7,0.7,3.2,1.7,4.5,3c1.3,1.3,2.3,2.8,3,4.5c0.7,1.7,1.1,3.5,1.1,5.5v2.9H53.7z
				 M59.1,15.6c-0.2,0-0.6,0-1.1,0.1c-0.5,0.1-1.1,0.2-1.7,0.5c-0.6,0.3-1.2,0.7-1.8,1.3c-0.6,0.6-1,1.4-1.3,2.4h11.6
				c-0.3-1-0.7-1.8-1.3-2.4c-0.6-0.6-1.1-1-1.7-1.3c-0.6-0.3-1.2-0.5-1.7-0.5C59.6,15.6,59.3,15.6,59.1,15.6z"/>
		</g>
		<g class="st4">
			<linearGradient id="SVGID_2_" gradientUnits="userSpaceOnUse" x1="40.8396" y1="34.5669" x2="40.8396" y2="11.4287">
				<stop  offset="0" style="stop-color:#BF2645"/>
				<stop  offset="2.378862e-02" style="stop-color:#BF2645"/>
				<stop  offset="1" style="stop-color:#583787"/>
			</linearGradient>
			<path class="st5" d="M37.5,23c0,4.3,1.2,8.2,3.4,11.6c2.1-3.3,3.4-7.3,3.4-11.6s-1.2-8.2-3.4-11.6C38.7,14.8,37.5,18.7,37.5,23z"
				/>
		</g>
	</g>
	<g class="st2">
		<g>
			<path class="st6" d="M110.9,10.5c0,0.2,0,0.4,0,0.5s0,0.4-0.4,1.3c-0.6,1.6-1.2,2.5-1.6,4c-0.1,0.5-0.7,0.9-1.4,0.9
				c-0.4,0-1-0.1-1.3-0.2c-0.4,0-1.5-0.8-1.5-1.4c0-1.7,1.4-2.4,1.6-3.7c0-0.3,0.5-0.8,0.5-1.4c0-0.5-0.1-0.7-0.4-0.7
				c-1.1,0-3,1-3.9,1.8c-1.8,1.6-2.2,2.2-5.1,6.1c-2.5,3.4-4.4,8-5.8,12.3c-0.2,0.6-0.2,2.3-0.2,2.6c0,0.4,0.3,1.4,0.6,1.6
				c0.8,0.6,1.2,1.3,1.9,1.3c2.6,0,6-2.8,9-5.7c0.7-0.7,0.9-0.9,1.7-0.9h0.7c0.6,0,1.1,0.2,1.5,0.9c0.2,0.4,0.3,0.5,0.3,0.7
				c0,0.2-0.2,0.3-0.6,0.7c-3.4,3.2-6.5,7.2-11.3,7.2c-1,0-2.8-0.3-3.5-0.6c-1.4-0.6-3.5-2.2-3.7-3.5c-0.1-1-0.2-1.9-0.2-2.8
				c0-1.8,0.5-4.3,0.6-4.5c2.5-7.2,6.9-15.4,13.8-19.4c0.5-0.3,2.5-0.8,3.8-0.8c0.7,0,1.3,0.1,1.9,0.4c0.3,0.1,0.5,0.3,0.6,0.4
				C109.3,8.4,110.7,9.3,110.9,10.5z"/>
			<path class="st6" d="M95.5,38.9c-1.1,0-2.9-0.3-3.7-0.7c-1.4-0.7-3.7-2.3-3.9-3.8c-0.2-1.2-0.2-2.1-0.2-2.8
				c0-1.8,0.5-4.4,0.6-4.6c2.3-6.6,6.7-15.3,14-19.6c0.6-0.4,2.7-0.8,3.9-0.8c0.8,0,1.4,0.1,2.1,0.4c0.3,0.2,0.6,0.3,0.8,0.5
				c0.1,0.2,0.4,0.4,0.6,0.7c0.6,0.6,1.3,1.3,1.6,2.3l0,0c0.1,0.3,0.1,0.4,0.1,0.6c0,0.2,0,0.5-0.4,1.4c-0.2,0.6-0.4,1-0.6,1.5
				c-0.4,0.8-0.7,1.5-0.9,2.5c-0.2,0.7-0.9,1.1-1.8,1.1c-0.3,0-0.6-0.1-1-0.1c-0.1,0-0.3-0.1-0.4-0.1c-0.5-0.1-1.8-0.9-1.8-1.7
				c0-1.1,0.5-1.8,0.9-2.4c0.3-0.5,0.6-0.8,0.7-1.3c0-0.2,0.1-0.4,0.3-0.6c0.1-0.2,0.3-0.5,0.3-0.7c0-0.2,0-0.3,0-0.3c0,0,0,0,0,0
				c-1,0-2.8,0.9-3.6,1.7c-1.7,1.6-2.1,2.1-5,6.1c-2.8,3.8-4.6,8.7-5.7,12.2c-0.2,0.5-0.2,2-0.2,2.5c0,0.4,0.3,1.2,0.5,1.3
				c0.2,0.2,0.4,0.4,0.6,0.5c0.5,0.5,0.8,0.7,1.1,0.7c2,0,5.1-1.9,8.7-5.6c0.7-0.7,1-1,2-1h0.7c0.8,0,1.4,0.3,1.9,1
				c0.2,0.4,0.3,0.6,0.3,0.9c0,0.3-0.2,0.5-0.4,0.7c-0.1,0.1-0.2,0.2-0.3,0.3c-0.5,0.5-1,1-1.5,1.5C102.7,35.9,99.8,38.9,95.5,38.9z
				 M106.2,7.3c-1.2,0-3.1,0.5-3.6,0.7C95.5,12.1,91.3,20.7,89,27.2c-0.1,0.3-0.6,2.7-0.6,4.4c0,0.7,0.1,1.5,0.2,2.7
				c0.2,1.1,2.1,2.6,3.5,3.2c0.7,0.3,2.4,0.6,3.4,0.6c4,0,6.8-2.9,9.6-5.6c0.5-0.5,1-1,1.5-1.5c0.1-0.1,0.2-0.2,0.3-0.3
				c0.1-0.1,0.2-0.1,0.2-0.2c0,0,0-0.2-0.2-0.5c-0.3-0.5-0.7-0.7-1.2-0.7h-0.7c-0.7,0-0.8,0.1-1.5,0.8c-3.9,3.9-7,5.8-9.2,5.8
				c-0.7,0-1.1-0.4-1.6-0.9c-0.2-0.2-0.3-0.3-0.5-0.5c-0.4-0.3-0.7-1.4-0.7-1.9c0,0,0-2,0.2-2.7c1.1-3.5,3-8.5,5.8-12.4
				c2.9-3.9,3.3-4.5,5.1-6.2c0.8-0.8,2.8-1.9,4.1-1.9c0.8,0,0.8,0.8,0.8,1c0,0.4-0.2,0.8-0.4,1.1c-0.1,0.1-0.2,0.3-0.2,0.3
				c-0.1,0.7-0.4,1.2-0.8,1.6c-0.4,0.6-0.8,1.1-0.8,2c0,0.3,0.9,1,1.2,1c0.1,0,0.3,0,0.4,0.1c0.3,0.1,0.6,0.1,0.8,0.1
				c0.5,0,1-0.3,1.1-0.6c0.3-1,0.6-1.7,1-2.6c0.2-0.4,0.4-0.9,0.6-1.4c0.3-0.8,0.3-1,0.3-1.1c0-0.1,0-0.2,0-0.4
				c-0.2-0.7-0.8-1.3-1.3-1.9c-0.3-0.3-0.6-0.5-0.7-0.8c-0.1-0.1-0.3-0.2-0.5-0.3C107.4,7.4,106.9,7.3,106.2,7.3z"/>
		</g>
		<g>
			<path class="st6" d="M116.4,20.1c0,0.5-0.1,1-0.3,1.5c-0.1,0.5-0.2,0.6-0.2,0.7c0,0.1,0,0.2,0.1,0.2c0,0,0.2,0,0.6-0.4
				c2.5-1.9,4.7-3.2,6.3-3.7c0.1,0,0.4-0.1,0.5-0.1c1.3,0,2.5,0.4,3.3,1.3c0.2,0.2,0.3,0.5,0.3,0.8c0,1.4-1.2,2-1.6,2
				c-0.7,0-1.4-0.5-2-0.5c-0.1,0-0.3,0-0.7,0.2c-4.9,2.3-9.8,6.3-11.4,13c-0.3,1.4-0.8,1.9-1.1,2.2c-0.2,0.3-0.6,0.4-0.8,0.4
				c-0.7,0-1-0.6-1.4-1c-0.5-0.5-0.8-1.2-0.9-1.7c0-1.5,1.9-3,2.4-4.8c1.1-3.4,2.4-6.8,3.1-10.5c0-0.4,0.1-0.6,0.1-0.7
				c0-0.3-0.4-0.6-0.4-1c0-0.4,0.7-1,1.8-1c0.6,0,1.4,0.3,1.5,0.5C116.1,18.2,116.4,19.1,116.4,20.1z"/>
			<path class="st6" d="M109.4,38.1c-0.8,0-1.2-0.5-1.5-0.9c0-0.1-0.1-0.1-0.1-0.2c-0.5-0.5-0.9-1.3-1-1.9c0-1,0.6-1.9,1.3-2.8
				c0.5-0.7,1-1.4,1.2-2.1c0.2-0.7,0.5-1.4,0.7-2c0.9-2.7,1.9-5.5,2.4-8.4c0-0.2,0-0.3,0.1-0.5c0-0.1,0-0.2,0-0.2
				c0,0-0.1-0.2-0.1-0.3c-0.1-0.2-0.2-0.4-0.3-0.7l0,0c0-0.6,1-1.4,2.1-1.4c0.7,0,1.6,0.3,1.8,0.7c0.5,0.8,0.7,1.7,0.7,2.7
				c0,0.5-0.1,1.1-0.3,1.7c0,0.1,0,0.1,0,0.2c2.5-1.9,4.7-3.2,6.4-3.8c0.2-0.1,0.5-0.1,0.7-0.1c1.5,0,2.8,0.5,3.6,1.4
				c0.2,0.2,0.4,0.6,0.4,1c0,1.6-1.4,2.4-2,2.4c-0.4,0-0.8-0.1-1.2-0.3c-0.3-0.1-0.6-0.2-0.9-0.2c-0.1,0-0.2,0-0.6,0.2
				c-4.2,2-9.6,5.8-11.2,12.8c-0.3,1.5-0.9,2.1-1.2,2.4C110.1,38,109.7,38.1,109.4,38.1z M112.8,18.1c0,0.1,0.1,0.3,0.2,0.4
				c0.1,0.2,0.2,0.4,0.2,0.6c0,0.1,0,0.2,0,0.3c0,0.1,0,0.3-0.1,0.5c-0.6,3-1.5,5.8-2.5,8.5c-0.2,0.7-0.5,1.3-0.7,2
				c-0.3,0.8-0.8,1.5-1.3,2.3c-0.6,0.8-1.2,1.6-1.2,2.4c0,0.4,0.4,1.1,0.8,1.5c0.1,0.1,0.1,0.1,0.2,0.2c0.3,0.3,0.5,0.6,1,0.6
				c0.1,0,0.4-0.1,0.5-0.3l0.1-0.1c0.2-0.1,0.7-0.6,1-2c1.7-7.3,7.3-11.2,11.6-13.3c0.4-0.2,0.7-0.2,0.9-0.2c0.4,0,0.7,0.1,1.1,0.2
				c0.3,0.1,0.7,0.2,0.9,0.2c0.2,0,1.2-0.5,1.2-1.6c0-0.2-0.1-0.4-0.2-0.5c-0.9-1-2.3-1.2-3.1-1.2c-0.1,0-0.3,0-0.4,0.1
				c-1.6,0.5-3.8,1.8-6.2,3.7c-0.3,0.3-0.6,0.4-0.8,0.4c-0.2,0-0.5-0.1-0.5-0.5c0-0.1,0-0.2,0.1-0.3c0-0.1,0.1-0.2,0.1-0.5
				c0.2-0.5,0.3-1,0.3-1.5c0-0.9-0.2-1.7-0.6-2.3c-0.1-0.1-0.6-0.3-1.2-0.3C113.4,17.5,112.9,17.9,112.8,18.1z"/>
		</g>
		<g>
			<path class="st6" d="M129.6,38.1c-0.5,0-1,0-1.7-0.3c-1-0.4-2.6-1.1-2.9-1.3c-0.9-0.5-1.8-1.6-2.3-3.1c-0.3-0.9-0.5-2.6-0.5-3.5
				c0-0.4,0-0.9,0.2-1.5c1.3-4.6,4.4-8.6,7.8-12.3c0.8-0.8,2.6-2,4.9-2c1.2,0,1.9,0.2,2.8,0.5c0.5,0.2,1.5,1,1.5,2.8
				c0,1.2-0.5,2.2-1,3.3c-0.5,0.9-0.8,1.4-1.5,2.1c-3.1,3.5-6.7,7.5-10.5,9.6c-0.2,0.1-0.3,0.2-0.3,0.4c0,0.7,0.7,1.7,1.1,1.9
				c0.5,0.3,1,0.4,1.4,0.4c0.8,0,1.5-0.2,3.5-1.3c3.1-1.7,5-4.1,7.8-5.8c0.5-0.3,0.7-0.3,0.9-0.3c0.3,0,0.9,0.5,0.9,0.9
				c0,0.4,0,0.5,0,0.6c0,0.2,0,0.5-0.2,0.6c-2.2,1.9-3.1,4.1-10,7.9C130.4,38.1,130.2,38.1,129.6,38.1z M135.5,17.3
				c0-0.4,0-0.5-0.3-0.5c-0.3,0-0.5,0.1-1,0.4c-0.5,0.3-0.5,0.2-0.9,0.6c-2.9,2.6-6.1,6.3-7.1,10.4c0,0.2,0,0.2,0.1,0.2
				c0.1,0,0.2,0,0.3-0.1c2.7-2,4.9-4.5,6.9-7c0.7-0.8,0.5-1,1.1-1.9C135.1,18.7,135.5,18.1,135.5,17.3z"/>
			<path class="st6" d="M129.6,38.4c-0.6,0-1.1-0.1-1.9-0.3c-1-0.4-2.6-1.1-3-1.3c-1-0.6-1.9-1.8-2.4-3.3c-0.3-0.9-0.6-2.7-0.6-3.6
				c0-0.5,0.1-1,0.2-1.6c1.4-5.1,4.9-9.3,7.9-12.4c0.8-0.8,2.7-2.2,5.1-2.2c1.3,0,2,0.2,2.9,0.5c0.6,0.2,1.7,1.1,1.7,3.2
				c0,1.3-0.5,2.3-1.1,3.4c-0.5,1-0.9,1.5-1.5,2.2c-2.9,3.3-6.6,7.5-10.6,9.7c0,0-0.1,0-0.1,0.1c0,0.6,0.6,1.4,0.9,1.6
				c0.4,0.2,0.8,0.3,1.2,0.3c0.7,0,1.4-0.2,3.3-1.2c1.7-0.9,3.1-2.1,4.4-3.2c1-0.9,2.1-1.8,3.3-2.6c0.5-0.3,0.8-0.4,1.1-0.4
				c0.5,0,1.3,0.6,1.3,1.3c0,0.3,0,0.4,0,0.5c0,0,0,0,0,0.1c0,0.2,0,0.6-0.4,0.9c-0.5,0.5-1,1-1.6,1.5c-1.5,1.6-3.4,3.6-8.5,6.4
				C130.6,38.4,130.3,38.4,129.6,38.4z M135.1,14.4c-2.2,0-4,1.3-4.6,1.9c-2.9,3.1-6.4,7.2-7.7,12.1c-0.2,0.7-0.2,1.1-0.2,1.4
				c0,0.9,0.2,2.5,0.5,3.4c0.5,1.4,1.2,2.5,2.1,2.9c0.3,0.2,1.8,0.9,2.9,1.2c0.7,0.2,1.1,0.3,1.6,0.3c0.6,0,0.7,0,1.5-0.4
				c5-2.8,6.9-4.7,8.3-6.3c0.5-0.6,1-1.1,1.6-1.6c0.1-0.1,0.1-0.2,0.1-0.4c0-0.1,0-0.1,0-0.2c0-0.1,0-0.2,0-0.4
				c0-0.2-0.4-0.5-0.6-0.5c-0.1,0-0.3,0-0.7,0.3c-1.2,0.7-2.2,1.6-3.2,2.5c-1.3,1.2-2.7,2.4-4.5,3.3c-2.1,1.1-2.8,1.3-3.7,1.3
				c-0.6,0-1.1-0.1-1.6-0.4c-0.5-0.3-1.3-1.3-1.3-2.2c0-0.4,0.2-0.5,0.4-0.7c3.9-2.2,7.5-6.3,10.4-9.5c0.6-0.7,0.9-1.1,1.4-2.1
				c0.5-1.1,1-2,1-3.1c0-1.7-0.9-2.3-1.2-2.5C136.9,14.6,136.3,14.4,135.1,14.4z M126.3,28.8c-0.1,0-0.5,0-0.5-0.6l0-0.1
				c1.1-4.4,4.5-8.2,7.2-10.6c0.3-0.3,0.4-0.3,0.6-0.4c0.1,0,0.2-0.1,0.4-0.2c0.4-0.3,0.8-0.5,1.1-0.5c0.6,0,0.6,0.6,0.6,0.9
				c0,0.9-0.4,1.5-0.9,2.3c-0.2,0.4-0.3,0.6-0.4,0.8c-0.1,0.3-0.3,0.6-0.7,1.1c-2,2.4-4.3,5-7,7C126.7,28.7,126.5,28.8,126.3,28.8z
				 M135.1,17.2c-0.2,0-0.4,0.1-0.7,0.3c-0.2,0.1-0.3,0.2-0.4,0.2c-0.1,0.1-0.2,0.1-0.4,0.3c-2.1,1.8-5.6,5.5-6.9,9.7
				c2.5-2,4.6-4.4,6.6-6.7c0.4-0.4,0.4-0.6,0.6-0.9c0.1-0.2,0.2-0.5,0.5-0.9c0.5-0.7,0.8-1.2,0.8-1.9
				C135.1,17.3,135.1,17.2,135.1,17.2z"/>
		</g>
		<g>
			<path class="st6" d="M158.9,18.6c0.2,0,0.9,0,1.3,0.6c0.1,0.1,0.1,0.2,0.1,0.3c0,0.2-0.1,0.4-0.2,0.5c-2,2.7-4.4,6.1-5.3,9.6
				c-0.3,1.3-0.6,2.6-0.6,4c0,1.2,0.3,2.4,1,3.4c0,0.1,0.1,0.2,0.1,0.3s-0.2,0.5-1,0.6c-0.3,0-0.6,0.2-0.9,0.2
				c-0.7,0-1.7-0.3-1.9-0.9c-0.6-1.3-0.8-2.6-0.8-3.9c0-1.4,0.2-2.1,0.2-2.3c0-0.2,0-0.2-0.2-0.2c-0.2,0-0.6,0.3-1.1,0.8l-2.4,2.3
				c-2.4,2.2-3.8,2.9-5.4,3.4c-0.3,0.1-0.5,0.2-0.7,0.2c-0.5,0-1-0.3-3.2-2c-0.2-0.2-1-1-1-2.7c0-1.5,0.5-3.4,2.7-6.7
				c2.7-4,5.2-5.8,6.5-6.8c2.2-1.6,4.6-2.8,7.3-3.6c0.3-0.1,0.7-0.1,1-0.1c1,0,1.9,0.5,2.8,1.3c0.2,0.2,0.6,0.6,0.7,0.9
				C158,18.2,158.4,18.6,158.9,18.6z M153.5,18.8c-4.3,2.3-7.6,4.8-10.2,7.9c-1.9,2.3-3.4,5-3.4,6.3c0,0.5,0.2,1.2,1,1.2
				c0.4,0,1.4-0.5,2.2-1.3c4.2-3.9,9-7,11.3-11.3c0.3-0.6,0.8-1.2,1.3-1.7c0.1-0.1,0.2-0.4,0.2-0.7c0-0.3-0.3-0.9-1-0.9
				C154.7,18.3,154.1,18.5,153.5,18.8z"/>
			<path class="st6" d="M153.4,38.5c-0.7,0-1.9-0.3-2.3-1.1c-0.5-1.2-0.8-2.5-0.8-4.1c0-0.9,0.1-1.6,0.1-2c-0.1,0.1-0.3,0.3-0.6,0.5
				l-2.5,2.3c-2.4,2.3-3.9,2.9-5.5,3.5c-0.3,0.1-0.6,0.2-0.8,0.2c-0.6,0-1.2-0.4-3.4-2.1c-0.2-0.1-1.1-1-1.1-3
				c0-1.3,0.3-3.2,2.8-6.9c2.7-4,5.2-5.9,6.6-6.9c2.3-1.7,4.7-2.9,7.4-3.7c0.3-0.1,0.7-0.2,1.1-0.2c1.1,0,2.1,0.5,3,1.4
				c0.2,0.2,0.6,0.7,0.8,1c0.1,0.3,0.4,0.6,0.7,0.6c0.3,0,1.1,0.1,1.6,0.8c0.1,0.2,0.2,0.3,0.2,0.5c0,0.2-0.1,0.5-0.2,0.7
				c-2.1,2.9-4.4,6.2-5.2,9.5c-0.3,1.3-0.6,2.6-0.6,3.9c0,1.2,0.3,2.3,0.9,3.2l0,0c0.1,0.1,0.1,0.3,0.1,0.4c0,0.3-0.3,0.9-1.3,1
				c-0.1,0-0.2,0-0.3,0.1C153.8,38.4,153.6,38.5,153.4,38.5z M150.7,30.4c0.5,0,0.5,0.4,0.5,0.6c0,0,0,0.1,0,0.3c0,0.3-0.2,1-0.2,2
				c0,1.4,0.2,2.6,0.7,3.8c0.2,0.4,1,0.7,1.6,0.7c0.1,0,0.3,0,0.4-0.1c0.1,0,0.3-0.1,0.4-0.1c0.4-0.1,0.6-0.2,0.6-0.3c0,0,0,0,0-0.1
				c-0.7-1-1-2.2-1-3.6c0-1.4,0.3-2.8,0.6-4.1c0.9-3.5,3.2-6.8,5.3-9.7c0.1-0.1,0.1-0.2,0.1-0.3c0,0,0,0,0-0.1
				c-0.3-0.4-0.8-0.4-1-0.4c-0.6,0-1.2-0.4-1.4-1.1c-0.1-0.2-0.3-0.5-0.6-0.8c-0.8-0.8-1.6-1.2-2.5-1.2c-0.3,0-0.6,0-0.9,0.1
				c-2.6,0.7-4.9,1.9-7.1,3.5l0,0c-1.3,1-3.8,2.8-6.4,6.7c-2.4,3.5-2.7,5.3-2.7,6.5c0,1.7,0.8,2.3,0.9,2.4c2.1,1.7,2.6,2,2.9,2
				c0.1,0,0.4-0.1,0.6-0.2c1.5-0.5,2.9-1.1,5.3-3.3l2.5-2.3C150.2,30.4,150.5,30.4,150.7,30.4z M150.7,31.2L150.7,31.2
				C150.7,31.2,150.7,31.2,150.7,31.2L150.7,31.2z M140.9,34.6c-0.9,0-1.4-0.6-1.4-1.6c0-1.6,1.8-4.5,3.5-6.5c2.5-3,5.8-5.6,10.3-8
				c0.6-0.3,1.3-0.5,1.6-0.5c1,0,1.4,0.7,1.4,1.3c0,0.4-0.1,0.7-0.3,0.9c-0.5,0.5-1,1.1-1.3,1.6c-1.7,3.1-4.6,5.6-7.6,8.1
				c-1.2,1-2.5,2.1-3.7,3.3C142.5,34,141.3,34.6,140.9,34.6z M154.9,18.7c-0.1,0-0.7,0.1-1.2,0.4l0,0c-4.4,2.4-7.6,4.8-10.1,7.8
				c-1.9,2.3-3.3,4.9-3.3,6.1c0,0.9,0.5,0.9,0.6,0.9c0.2,0,1.2-0.4,2-1.2c1.2-1.2,2.5-2.2,3.8-3.3c3-2.5,5.9-4.9,7.5-7.9
				c0.3-0.6,0.8-1.3,1.4-1.8c0,0,0.1-0.2,0.1-0.4C155.6,19.1,155.4,18.7,154.9,18.7z"/>
		</g>
		<g>
			<path class="st6" d="M168.8,18.3c-0.5,1-1,2.7-1,2.8c0,0.1,0.1,0.1,0.2,0.1c0.1,0,0.7-0.1,1.1-0.2c2-0.4,4.6-1.4,6.1-2.3
				c0.2-0.1,0.4-0.2,0.5-0.2c0.8,0,2.2,0.6,2.2,1.2c0,0.6-0.5,1.3-1.5,1.7c-1.2,0.5-1.2,0.6-2,1c-2.2,0.9-6.1,1.7-7,2
				c-0.4,0.1-0.7,0.4-0.9,0.7c-0.4,0.6-0.6,1.5-0.8,2.2c-0.1,0.5-0.4,1-0.5,1.5c-0.3,1.5-1.8,5.3-2.1,7.6c0,0.4-0.5,1.6-1.1,1.9
				c-0.2,0.1-0.5,0.1-0.7,0.1c-0.5,0-1.3-0.2-1.6-0.5c-0.4-0.3-0.5-0.7-0.5-1.1c0-0.4,0-1,0.2-1.4c1.1-3.4,1.9-7.3,3.4-10.8
				c0-0.1,0.1-0.2,0.1-0.3c0-0.1,0-0.2-0.2-0.3c-1.6-0.8-1.9-2-2.9-2.9c-0.2-0.2-0.2-0.4-0.2-0.5c0-0.3,0.2-0.4,0.5-0.6
				c0.3-0.1,0.5-0.2,0.9-0.2c1,0,2.1,0.7,2.9,0.7c0.4,0,0.7-0.2,0.8-0.6c0.1-0.5,0.4-1.2,0.7-2.1c1.1-2.8,2.3-6.3,3.9-9.6
				c0.3-0.6,0.3-0.6,0.5-0.6c0.7,0,0.8-0.2,1.3-0.2c0.4,0,1.2,0.1,1.7,0.4c0.2,0.1,0.4,0.2,0.4,0.3c0,0.1,0,0.2,0,0.5
				C172.4,12.1,170.2,15.2,168.8,18.3z"/>
			<path class="st6" d="M161.3,38.8c-0.6,0-1.4-0.2-1.9-0.6c-0.4-0.3-0.6-0.8-0.6-1.4c0-0.4,0.1-1,0.2-1.5c0.4-1.3,0.8-2.7,1.2-4.1
				c0.6-2.2,1.3-4.6,2.2-6.7l0-0.1c0,0,0,0,0,0c0,0,0,0,0,0c-1.1-0.5-1.6-1.2-2.1-1.9c-0.3-0.4-0.6-0.7-0.9-1
				c-0.4-0.3-0.4-0.7-0.4-0.8c0-0.5,0.4-0.7,0.7-0.9c0.3-0.1,0.6-0.3,1.1-0.3c0.6,0,1.2,0.2,1.7,0.4c0.5,0.2,0.9,0.3,1.2,0.3
				c0.2,0,0.4-0.1,0.4-0.4c0.2-0.6,0.4-1.3,0.7-2.2c0.3-0.8,0.6-1.6,0.9-2.5c0.8-2.2,1.8-4.8,2.9-7.2c0.3-0.6,0.4-0.8,0.8-0.8
				c0.3,0,0.5-0.1,0.7-0.1c0.2-0.1,0.3-0.1,0.6-0.1c0.5,0,1.3,0.1,1.9,0.4c0.2,0.1,0.6,0.3,0.6,0.7c0,0.1,0,0.3-0.1,0.6
				c-0.4,2.6-1.7,4.9-2.9,7.2c-0.5,0.9-0.9,1.8-1.3,2.6l0,0c-0.3,0.7-0.7,1.8-0.9,2.4c0.2,0,0.5-0.1,0.8-0.1c2-0.4,4.5-1.4,6-2.2
				c0.3-0.2,0.5-0.3,0.7-0.3c0.8,0,2.6,0.7,2.6,1.5c0,0.8-0.7,1.6-1.7,2.1c-0.6,0.3-0.9,0.4-1.2,0.6c-0.2,0.1-0.5,0.2-0.9,0.4
				c-1.5,0.6-3.7,1.2-5.3,1.6c-0.8,0.2-1.4,0.4-1.7,0.5c-0.3,0.1-0.5,0.3-0.7,0.5c-0.3,0.6-0.6,1.4-0.7,2.1
				c-0.1,0.3-0.2,0.5-0.3,0.7c-0.1,0.3-0.2,0.5-0.2,0.7c-0.1,0.6-0.4,1.6-0.8,2.7c-0.5,1.7-1.1,3.5-1.3,4.8c0,0.4-0.5,1.8-1.3,2.2
				C161.9,38.7,161.5,38.8,161.3,38.8z M160.9,20.2c-0.3,0-0.5,0.1-0.7,0.2c-0.3,0.2-0.3,0.2-0.3,0.3c0,0.1,0,0.2,0.1,0.3
				c0.4,0.4,0.7,0.8,1,1.2c0.5,0.6,0.9,1.2,1.8,1.7c0.3,0.1,0.4,0.3,0.4,0.6c0,0.1,0,0.2-0.1,0.3l0,0.1c-0.9,2.1-1.5,4.4-2.2,6.7
				c-0.4,1.4-0.8,2.8-1.2,4.1c-0.1,0.3-0.2,0.9-0.2,1.2c0,0.2,0.1,0.6,0.4,0.8c0.3,0.2,1,0.4,1.4,0.4c0.2,0,0.4,0,0.5-0.1
				c0.5-0.2,0.9-1.3,0.9-1.6c0.2-1.4,0.8-3.3,1.3-5c0.4-1.1,0.7-2.1,0.8-2.7c0.1-0.3,0.2-0.6,0.3-0.9c0.1-0.2,0.2-0.4,0.2-0.6
				c0.2-0.7,0.4-1.6,0.8-2.3c0.2-0.4,0.6-0.7,1.1-0.8c0.3-0.1,1-0.3,1.8-0.5c1.6-0.4,3.8-1,5.2-1.6c0.4-0.1,0.5-0.2,0.8-0.4
				c0.3-0.1,0.6-0.3,1.3-0.6c0.9-0.4,1.3-1,1.3-1.4c-0.1-0.2-1.2-0.8-1.9-0.8c0,0-0.1,0-0.3,0.2c-1.5,0.9-4.1,1.9-6.2,2.3
				c-0.3,0.1-1,0.2-1.2,0.2c-0.3,0-0.5-0.2-0.5-0.5c0-0.3,0.7-2.1,1.1-3c0.4-0.9,0.9-1.8,1.4-2.7c1.2-2.2,2.4-4.5,2.8-7
				c0-0.2,0-0.3,0-0.3c0,0-0.1,0-0.2-0.1c-0.5-0.2-1.2-0.3-1.6-0.3c-0.1,0-0.2,0-0.4,0.1c-0.2,0.1-0.4,0.2-0.9,0.2
				c0,0.1-0.1,0.2-0.2,0.4c-1.1,2.4-2.1,4.9-2.9,7.1c-0.3,0.9-0.6,1.7-0.9,2.5c-0.3,0.9-0.6,1.6-0.7,2.1c-0.1,0.6-0.5,0.9-1.1,0.9
				c-0.5,0-0.9-0.2-1.5-0.4C161.8,20.4,161.3,20.2,160.9,20.2z"/>
		</g>
		<g>
			<path class="st6" d="M179.3,35.9c-1,0.9-2.6,2.2-4.7,2.2c-1.4,0-2.9-1.9-3.4-3.6c-0.2-0.6-0.2-1.3-0.2-1.9c0-1.1,0.2-2.1,0.7-3.7
				c0.3-0.9,0.5-1.6,0.8-2.3c1.4-3.3,2.7-6.6,4.4-10.1c0.5-1,1.4-1.2,2.3-1.2c0.5,0,1,0.1,1.4,0.4c0.2,0.2,0.4,0.3,0.4,0.7
				c0,2.4-1.9,3.5-2.9,5.8c-0.8,1.7-2,4.8-2.7,6.4c-0.8,2-1.1,3.8-1.1,4.4c0,0.4,0,1.5,0.8,1.5c1,0,1.5-0.3,3.3-1.5
				c1.1-0.8,1.4-1,2.1-1c0.4,0,0.9,0.1,1.1,0.3c0.3,0.2,0.3,0.5,0.3,0.6c0,0.5-0.3,0.8-0.7,1.2L179.3,35.9z M185.6,7.6
				c0,0.3,0,0.6-0.2,0.8c-0.8,1-1.9,2.2-2.9,2.2c-0.9,0-1.6-0.5-1.8-0.9c-0.2-0.5-0.3-1-0.3-1.5c0-0.6,0.2-1.4,0.6-1.9
				c0.5-0.5,1.3-0.8,2.2-0.8c0.7,0,1.6,0.2,1.9,0.6C185.5,6.6,185.6,7.2,185.6,7.6z"/>
			<path class="st6" d="M174.6,38.5c-1.5,0-3.2-2-3.7-3.8c-0.2-0.6-0.2-1.2-0.2-2c0-1.2,0.2-2.3,0.7-3.8c0.1-0.4,0.3-0.7,0.4-1.1
				c0.1-0.4,0.3-0.8,0.4-1.2c0.3-0.7,0.6-1.4,0.9-2.1c1.1-2.6,2.2-5.2,3.5-8c0.4-0.9,1.4-1.4,2.6-1.4c0.3,0,1.1,0,1.6,0.5
				c0.3,0.2,0.5,0.4,0.5,1c0,1.6-0.8,2.7-1.6,3.9c-0.5,0.6-0.9,1.3-1.3,2.1c-0.8,1.7-2,4.8-2.7,6.4c-0.8,2.1-1.1,3.7-1.1,4.3
				c0,0.4,0.1,1.1,0.5,1.1c0.9,0,1.3-0.2,3.1-1.5c1.1-0.8,1.5-1.1,2.3-1.1c0.4,0,1,0.1,1.4,0.4c0.4,0.3,0.4,0.7,0.4,0.9
				c0,0.6-0.3,1-0.8,1.5l-1.9,1.7C177.9,37.7,176.3,38.5,174.6,38.5z M179.2,15.7c-0.7,0-1.5,0.2-1.9,1c-1.3,2.7-2.4,5.4-3.5,7.9
				c-0.3,0.7-0.6,1.4-0.9,2.1c-0.1,0.3-0.3,0.7-0.4,1.1c-0.1,0.4-0.2,0.7-0.4,1.1c-0.5,1.5-0.7,2.4-0.7,3.5c0,0.7,0.1,1.3,0.2,1.8
				c0.5,1.5,1.9,3.3,3.1,3.3c1.4,0,2.9-0.7,4.4-2.1l1.9-1.7c0.5-0.5,0.6-0.6,0.6-1c0-0.2,0-0.2-0.1-0.4c-0.2-0.1-0.5-0.2-0.9-0.2
				c-0.6,0-0.8,0.1-1.9,0.9c-1.9,1.3-2.4,1.6-3.5,1.6c-0.4,0-1.2-0.2-1.2-1.8c0-0.8,0.4-2.6,1.1-4.6c0.6-1.7,1.9-4.8,2.7-6.5
				c0.4-0.8,0.9-1.5,1.4-2.2c0.8-1.1,1.5-2,1.5-3.4c0-0.3-0.1-0.3-0.2-0.4C180.1,15.9,179.7,15.7,179.2,15.7z M182.5,11
				c-1,0-1.8-0.6-2.1-1.1c-0.2-0.5-0.4-1.1-0.4-1.7c0-0.6,0.2-1.5,0.7-2.1c0.5-0.6,1.4-0.9,2.5-0.9c0.7,0,1.7,0.2,2.2,0.7
				c0.4,0.5,0.6,1,0.6,1.7c0,0.4-0.1,0.8-0.3,1C184.7,9.9,183.6,11,182.5,11z M183.2,5.9c-0.6,0-1.5,0.1-1.9,0.6
				c-0.3,0.4-0.5,1-0.5,1.7c0,0.5,0.1,1,0.3,1.4c0.1,0.3,0.7,0.7,1.5,0.7c0.9,0,2.1-1.5,2.6-2.1c0.1-0.1,0.1-0.3,0.1-0.6
				c0-0.5-0.1-0.9-0.4-1.3C184.6,6.2,183.9,5.9,183.2,5.9z"/>
		</g>
		<g>
			<path class="st6" d="M185.1,33.5c-0.1,0.6-0.1,0.7-0.1,0.9c0,0.1,0.2,0.3,0.4,0.3c0.3,0,0.7,0,1.2-0.6c1.6-1.9,3.5-5.1,4.8-8.3
				c0.4-0.9,0.4-1.3,0.6-1.9c0.2-0.5,0.4-1.5,0.4-2.4c0-0.5-0.2-1-0.5-1.3c-0.3-0.3-0.6-0.8-0.6-1.3c0-0.6,0.5-1.1,1.4-1.1
				c1.2,0,1.8,0.2,2.4,1.2c0.7,1.2,1.5,1.5,2.2,1.5c2,0,3.8-1.5,5.8-1.5c0.5,0,1.4,0.2,2.1,0.6c0.5,0.3,0.6,0.5,0.6,1
				c0,0.1,0,0.2-0.3,0.4c-2.4,1.4-4.9,1.6-6,2.1c-0.4,0.1-0.8,0.3-1,0.3c-0.6,0-1.4-0.3-1.9-0.3c-0.3,0-0.4,0-0.6,0.2
				c-0.2,0.1-0.3,0.4-0.5,1.5c-1.1,4.1-3.3,7.7-6,11.1c-0.9,1.1-1.2,1.3-1.8,1.9c-0.4,0.4-1,0.7-1.6,0.7c-0.9,0-1.2-0.5-2.1-1.1
				c-1.4-1-1.6-1.1-1.8-1.9c-0.1-0.3-0.1-0.8-0.1-1.1c0-1,0.1-1.5,0.4-2.8c0.2-0.7,0.1-1,0.8-3.4c0.9-3.6,1.9-7.3,2.4-10.9
				c0.1-0.7,0.9-1,1.1-1c0.3,0,0.7,0.1,1,0.1c0.5,0,0.9,0,1.3,0.4c0.2,0.1,0.2,0.3,0.2,0.7c0,2.8-0.9,3-1.4,5.3
				C186.7,26.2,185.9,29.8,185.1,33.5z"/>
			<path class="st6" d="M185.7,38.7c-0.8,0-1.2-0.3-1.7-0.7c-0.2-0.1-0.4-0.3-0.6-0.5c-1.4-0.9-1.7-1.1-2-2.1
				c-0.1-0.4-0.1-0.9-0.1-1.2c0-1,0.1-1.6,0.4-2.9c0.1-0.2,0.1-0.4,0.1-0.7c0.1-0.5,0.2-1.2,0.6-2.8l0.3-1.2c0.8-3.2,1.6-6.4,2-9.7
				c0.1-0.9,1.1-1.3,1.4-1.3c0.2,0,0.4,0,0.5,0c0.2,0,0.3,0,0.5,0c0.5,0,1,0,1.6,0.5c0.3,0.2,0.3,0.6,0.3,1c0,1.8-0.4,2.6-0.7,3.5
				c-0.2,0.5-0.5,1.1-0.7,2c-0.4,1.8-0.8,3.7-1.2,5.5c-0.4,1.8-0.8,3.6-1.2,5.5l0,0c-0.1,0.4-0.1,0.6-0.1,0.7c0.3,0,0.6-0.1,0.9-0.4
				c1.6-1.9,3.5-5.1,4.7-8.2c0.2-0.5,0.3-0.8,0.3-1.1c0.1-0.3,0.1-0.6,0.3-0.9c0.2-0.4,0.3-1.4,0.3-2.3c0-0.4-0.2-0.8-0.4-1
				c-0.4-0.3-0.7-0.9-0.7-1.5c0-0.7,0.6-1.5,1.8-1.5c1.2,0,2,0.2,2.7,1.4c0.7,1.1,1.3,1.3,1.9,1.3c0.9,0,1.8-0.4,2.7-0.7
				c1-0.4,1.9-0.8,3-0.8c0.6,0,1.5,0.2,2.3,0.7c0.6,0.4,0.8,0.7,0.8,1.3c0,0.3-0.1,0.5-0.5,0.7c-1.6,0.9-3.3,1.3-4.5,1.6
				c-0.6,0.2-1.2,0.3-1.5,0.5c-0.4,0.2-0.9,0.3-1.2,0.3c-0.4,0-0.7-0.1-1.1-0.1c-0.3-0.1-0.6-0.1-0.9-0.1c-0.2,0-0.3,0-0.4,0.1
				c-0.1,0.1-0.2,0.4-0.4,1.3c-1,3.7-2.9,7.2-6.1,11.2c-0.6,0.7-0.9,1.1-1.3,1.4c-0.2,0.2-0.3,0.3-0.5,0.5
				C187.2,38.3,186.4,38.7,185.7,38.7z M186.3,16.4c-0.1,0-0.7,0.2-0.7,0.7c-0.4,3.3-1.2,6.6-2.1,9.8l-0.3,1.2
				c-0.4,1.6-0.5,2.3-0.6,2.7c0,0.3-0.1,0.5-0.2,0.7c-0.3,1.2-0.4,1.8-0.4,2.7c0,0.3,0,0.7,0.1,1c0.2,0.7,0.3,0.7,1.7,1.7
				c0.3,0.2,0.5,0.3,0.6,0.5c0.4,0.4,0.7,0.6,1.2,0.6c0.5,0,1.1-0.3,1.4-0.6c0.2-0.2,0.4-0.4,0.6-0.6c0.3-0.3,0.7-0.6,1.2-1.3
				c3.1-3.9,5-7.4,5.9-10.9c0.3-1.1,0.4-1.4,0.7-1.6c0.3-0.3,0.6-0.3,0.9-0.3c0.3,0,0.7,0.1,1,0.1c0.3,0.1,0.7,0.1,0.9,0.1
				c0.3,0,0.8-0.2,0.9-0.2c0.4-0.2,1-0.3,1.6-0.5c1.2-0.3,2.8-0.7,4.3-1.6c0.1,0,0.1-0.1,0.1-0.1c0-0.3,0-0.4-0.4-0.6
				c-0.7-0.4-1.4-0.6-1.9-0.6c-0.9,0-1.8,0.4-2.7,0.7c-1,0.4-1.9,0.8-3,0.8c-1,0-1.8-0.5-2.5-1.6c-0.5-0.8-0.9-1.1-2.1-1.1
				c-0.6,0-1,0.3-1,0.7c0,0.3,0.3,0.8,0.5,1c0.4,0.4,0.6,1,0.6,1.5c0,1-0.2,2.1-0.4,2.5c-0.1,0.3-0.2,0.5-0.3,0.8
				c-0.1,0.3-0.2,0.7-0.4,1.2c-1.3,3.1-3.2,6.4-4.8,8.4c-0.6,0.7-1.2,0.7-1.5,0.7c-0.4,0-0.7-0.3-0.7-0.6c0-0.2,0-0.3,0.1-0.9l0,0
				c0.4-1.8,0.8-3.7,1.2-5.5c0.4-1.8,0.8-3.6,1.2-5.5c0.2-0.9,0.5-1.6,0.7-2.1c0.4-0.8,0.7-1.5,0.7-3.2c0-0.3,0-0.4-0.1-0.4
				c-0.3-0.3-0.6-0.3-1.1-0.3c-0.2,0-0.4,0-0.6-0.1C186.6,16.4,186.5,16.4,186.3,16.4z"/>
		</g>
		<g>
			<path class="st6" d="M214,19.1c1.8,0,2.9-0.1,3.9-0.1c1.5,0,2.8,0.5,2.8,1.2c0,0.6-1.1,0.7-1.3,1c-0.1,0.2-0.2,0.2-0.5,0.3
				c-0.9,0.1-2.2,0.6-3.4,0.8c-0.9,0.1-1.5,0.1-1.8,0.1c-0.4,0-0.5,0-0.5,0.4c-1.2,4.9-2.8,9.1-5.7,12.2c-1.3,1.4-2.5,2.7-4.1,2.7
				c-0.4,0-0.8-0.1-1.1-0.2c-1.7-0.8-3-1.8-3.4-2.9c-0.5-1.3-0.7-2.6-0.7-3.8c0-3.7,1.9-7,3.9-10.1c0.6-1,0.6-0.7,1.1-1.4
				c1.5-2,3.4-4.2,5.3-4.2c0.7,0,1.6,0.2,2.4,0.9c0.4,0.3,0.5,0.4,0.6,0.8C212.1,17.7,212.7,19.1,214,19.1z M209.1,18.9
				c-0.1-0.5-0.3-0.8-0.5-0.8c-0.2,0-0.5,0.2-0.7,0.5c-0.2,0.2-0.6,0.5-0.9,0.8c-1.4,1.8-5.7,7.4-5.7,12.7c0,0.1,0,0.3,0.1,0.6
				c0.1,0.4,0.7,1.2,1.1,1.5c0.1,0.1,0.3,0.1,0.4,0.1c0.5,0,0.7-0.3,0.9-0.4c0.3-0.1,0.4-0.3,0.8-0.8c2.6-3.9,5.1-7.5,5.1-12.1
				c0-0.2,0-0.7,0-1c0-0.3-0.1-0.4-0.3-0.5C209.2,19.4,209.1,19.1,209.1,18.9z"/>
			<path class="st6" d="M203.5,37.8c-0.5,0-0.9-0.1-1.3-0.3c-1.3-0.6-3-1.7-3.6-3c-0.5-1.2-0.7-2.5-0.7-3.9c0-4,2.1-7.4,4-10.3
				c0.4-0.6,0.5-0.7,0.7-0.9c0.1-0.1,0.2-0.2,0.4-0.5c2.1-2.9,3.9-4.3,5.6-4.3c0.7,0,1.8,0.2,2.6,1l0.1,0.1c0.3,0.3,0.5,0.4,0.6,0.8
				c0.5,1.4,1,2.3,2,2.3c1,0,1.8,0,2.5-0.1c0.5,0,1-0.1,1.4-0.1c1.5,0,3.2,0.5,3.2,1.5c0,0.6-0.6,0.9-1.1,1.1
				c-0.1,0-0.2,0.1-0.3,0.1c-0.2,0.3-0.4,0.4-0.7,0.4c-0.4,0.1-0.9,0.2-1.5,0.3c-0.6,0.2-1.3,0.3-1.9,0.4c-0.9,0.1-1.5,0.1-1.8,0.1
				c-0.1,0-0.1,0-0.2,0c0,0,0,0,0,0.1c-1.4,5.7-3.2,9.5-5.8,12.3C206.5,36.4,205.2,37.8,203.5,37.8z M208.7,15.3
				c-1.5,0-3.1,1.3-5.1,4c-0.2,0.3-0.3,0.4-0.5,0.5c-0.1,0.1-0.3,0.3-0.6,0.8c-1.9,2.8-3.9,6.1-3.9,9.9c0,1.3,0.2,2.6,0.7,3.6
				c0.4,0.9,1.5,1.8,3.2,2.7c0.2,0.1,0.6,0.2,0.9,0.2c1.4,0,2.6-1.2,3.8-2.5c2.5-2.7,4.3-6.4,5.6-12c0.2-0.5,0.4-0.6,0.9-0.6
				c0.3,0,0.8,0,1.7-0.1c0.6-0.1,1.2-0.3,1.9-0.4c0.6-0.1,1.1-0.3,1.5-0.4c0.1,0,0.2,0,0.2,0c0,0,0,0,0,0c0.1-0.2,0.3-0.3,0.6-0.4
				c0.2-0.1,0.6-0.2,0.6-0.4c0-0.3-1-0.8-2.4-0.8c-0.4,0-0.9,0-1.4,0.1c-0.7,0-1.5,0.1-2.5,0.1c-1.7,0-2.3-1.8-2.7-2.7
				c-0.1-0.2-0.2-0.3-0.4-0.5l-0.1-0.1C210.1,15.5,209.3,15.3,208.7,15.3z M203,34.7c-0.2,0-0.4,0-0.6-0.2c-0.5-0.3-1.1-1.3-1.2-1.7
				c-0.2-0.4-0.2-0.6-0.2-0.8c0-5,3.6-10.2,5.7-12.9c0.1-0.2,0.4-0.4,0.6-0.5c0.1-0.1,0.2-0.2,0.3-0.2c0.1-0.1,0.5-0.6,1-0.6
				c0.5,0,0.7,0.6,0.8,1l0,0c0,0.1,0.1,0.3,0.3,0.5l0,0c0.2,0.1,0.3,0.3,0.3,0.7c0,0.2,0,0.6,0,1c0,4.6-2.4,8.1-4.9,11.9l-0.2,0.3
				c-0.4,0.6-0.5,0.8-0.9,0.9c0,0,0,0-0.1,0.1C203.8,34.4,203.5,34.7,203,34.7z M208.5,18.5c-0.1,0-0.2,0.1-0.3,0.3
				c-0.1,0.1-0.3,0.2-0.4,0.4c-0.2,0.1-0.3,0.3-0.4,0.4c-2.1,2.6-5.6,7.8-5.6,12.5c0,0.1,0,0.2,0.1,0.5c0.1,0.4,0.6,1.1,1,1.3
				c0,0,0.1,0,0.2,0c0.2,0,0.4-0.1,0.5-0.2c0.1-0.1,0.1-0.1,0.2-0.1c0.2-0.1,0.3-0.2,0.6-0.7l0.2-0.3c2.6-3.9,4.8-7.2,4.8-11.5
				c0-0.6,0-0.8,0-0.9c0-0.2,0-0.2-0.1-0.3l-0.1-0.1c-0.2-0.2-0.4-0.5-0.5-0.8C208.6,18.8,208.6,18.6,208.5,18.5z"/>
		</g>
		<g>
			<path class="st6" d="M229.6,19.4c0,1.7-0.7,2.9-1.3,3.8c-0.4,0.5-0.4,0.5-0.6,0.5c-0.5,0-1.3-0.3-1.6-0.6
				c-0.4-0.3-0.7-0.8-0.7-1.5c0-0.1,0-0.2,0.1-0.4c0.4-0.7,0.8-1.3,0.8-2.1c0-0.4-0.1-0.9-0.3-1.2c-0.2-0.3-0.6-0.6-1-0.6
				c-0.3,0-2.4,2.6-2.8,4.7c0,0.3-0.1,0.6-0.1,1.2c0,0.3,0.2,2.3,0.3,2.9c0.4,3.4,1.5,8.5,1.5,10.3c0,0.4-0.2,0.6-0.4,0.8
				c-0.8,0.8-1.6,1.6-2.9,1.6c-0.4,0-0.9-0.1-1.1-0.2c-3-1.2-5.1-3.6-6.6-6.1c-0.1-0.2-0.3-0.5-0.3-0.7c0-0.7,0.7-1.7,1.6-1.7
				c0.9,0,1.3,0.1,1.7,0.6c1,1.4,1.6,3.1,2.9,4.4c0.5,0.4,0.7,0.5,0.9,0.5c0.3,0,0.5-0.2,0.5-0.4c0-0.2,0-0.3-0.2-1.4
				c-0.6-3-1.5-9.8-1.5-10.7c0-1.2,0.5-3.8,1.6-5.5c1.3-2.1,3.2-2.9,4-2.9c2.5,0,3.5,0.6,4.4,1.6C229.4,17.1,229.6,18.5,229.6,19.4z
				"/>
			<path class="st6" d="M220.7,39.2c-0.4,0-1-0.1-1.3-0.2c-2.7-1.1-5-3.2-6.8-6.2c0,0-0.3-0.5-0.3-0.9c0-0.8,0.8-2,2-2
				c1,0,1.5,0.1,2,0.8c0.4,0.6,0.8,1.2,1.1,1.7c0.5,0.9,1,1.8,1.8,2.6c0.4,0.4,0.6,0.4,0.7,0.4c0.1,0,0.1,0,0.1,0
				c0-0.1,0-0.2-0.2-1.3c-0.6-3.1-1.5-9.9-1.5-10.8c0-1.2,0.5-3.9,1.7-5.7c1.4-2.2,3.4-3.1,4.3-3.1c2.5,0,3.7,0.6,4.7,1.7
				c0.7,0.8,1,2.2,1,3.2c0,1.5-0.5,2.8-1.4,4c-0.4,0.5-0.5,0.6-0.9,0.6c-0.6,0-1.5-0.4-1.8-0.7c-0.5-0.4-0.8-1-0.8-1.7
				c0-0.2,0.1-0.4,0.2-0.6c0.4-0.7,0.7-1.2,0.7-1.9c0-0.3-0.1-0.8-0.3-1c-0.1-0.2-0.4-0.4-0.6-0.4c-0.4,0.3-2.1,2.5-2.5,4.4
				c0,0.3-0.1,0.6-0.1,1.1c0,0.2,0.2,2.2,0.3,2.8c0.2,1.4,0.4,3.1,0.7,4.7c0.4,2.3,0.7,4.6,0.7,5.7c0,0.4-0.2,0.8-0.5,1.1
				C223,38.3,222.1,39.2,220.7,39.2z M214.3,30.6c-0.7,0-1.3,0.8-1.3,1.3c0,0.1,0.1,0.3,0.2,0.5c1.7,2.9,3.9,4.9,6.4,5.9
				c0.2,0.1,0.6,0.2,1,0.2c1.1,0,1.8-0.7,2.6-1.5c0.2-0.2,0.3-0.4,0.3-0.6c0-1.1-0.4-3.3-0.7-5.6c-0.3-1.6-0.5-3.3-0.7-4.7
				c-0.1-0.5-0.3-2.6-0.3-2.9c0-0.6,0-0.9,0.1-1.2c0.4-2,2.5-5,3.1-5c0.5,0,1.1,0.4,1.3,0.8c0.2,0.4,0.4,1,0.4,1.4
				c0,0.9-0.4,1.6-0.8,2.3c-0.1,0.1-0.1,0.2-0.1,0.2c0,0.5,0.2,0.9,0.5,1.2c0.3,0.2,1,0.5,1.4,0.5c0,0,0,0,0.1,0
				c0,0,0.2-0.2,0.3-0.4c0.8-1.1,1.2-2.2,1.2-3.5c0-0.9-0.2-2.1-0.8-2.7c-0.9-1-1.9-1.5-4.2-1.5c-0.7,0-2.4,0.7-3.7,2.7
				c-1,1.6-1.6,4.1-1.6,5.3c0,0.9,0.8,7.7,1.4,10.6c0.2,1.2,0.2,1.3,0.2,1.5c0,0.4-0.4,0.7-0.8,0.7c-0.4,0-0.7-0.2-1.2-0.6
				c-0.9-0.8-1.4-1.8-2-2.7c-0.3-0.6-0.6-1.1-1-1.7C215.4,30.7,215.2,30.6,214.3,30.6z"/>
		</g>
	</g>
</g>
</svg>
